<svg width="50" height="79" viewBox="0 0 50 79" fill="none" xmlns="http://www.w3.org/2000/svg">
<g clip-path="url(#clip0_7_150)">
<path fill-rule="evenodd" clip-rule="evenodd" d="M0 0H50V79H0V0Z" fill="black"/>
<path fill-rule="evenodd" clip-rule="evenodd" d="M45.5633 39.4123C45.5633 57.5286 36.2681 72.215 24.8018 72.215C13.3355 72.215 4.04059 57.5286 4.04059 39.4123C4.04059 21.2955 13.3355 6.60956 24.8018 6.60956C36.2681 6.60956 45.5633 21.2955 45.5633 39.4123Z" fill="#EFC9C9"/>
<path fill-rule="evenodd" clip-rule="evenodd" d="M43.8788 39.4586C43.8788 55.9429 35.4212 69.3059 24.9878 69.3059C14.5547 69.3059 6.09711 55.9429 6.09711 39.4586C6.09711 22.9738 14.5547 9.61084 24.9878 9.61084C35.4212 9.61084 43.8788 22.9742 43.8788 39.4586Z" fill="black"/>
<path fill-rule="evenodd" clip-rule="evenodd" d="M25.2327 38.8549L28.2295 36.2245L25.4384 8.61985L25.2327 38.8549ZM24.7235 38.7311L24.9782 16.9913L23.9401 38.236L24.7235 38.7311ZM23.1957 37.277L21.9423 36.1319L25.145 8.31738L23.1957 37.277ZM27.1229 38.0504L28.2884 36.9364L41.3725 54.2667L27.1229 38.0504ZM26.3686 38.7934L25.5855 39.7213L37.7293 50.9248L26.3686 38.7934ZM25.2719 45.4157V39.9533L41.255 54.947L25.2719 45.4157ZM24.6452 45.6169L24.6846 39.7988L8.38809 54.638L24.6452 45.6169ZM23.7051 38.6078L24.4102 39.5979L20.3753 43.0017L23.7051 38.6078ZM22.8922 37.9729L21.6681 36.8126L8.1925 54.0196L22.8922 37.9729Z" fill="#EFC9C9"/>
<path fill-rule="evenodd" clip-rule="evenodd" d="M39.7482 20.2406C42.4809 25.4764 44.1224 32.1868 44.1224 39.5033C44.1224 56.2348 35.538 69.7982 24.9484 69.7982C14.4548 69.7982 5.93162 56.4791 5.7778 39.9578C5.7765 40.1021 5.77417 40.2459 5.77417 40.391C5.77417 57.3028 14.4515 70.6404 25.1554 70.6404C35.8591 70.6404 44.36 57.4262 44.36 40.391C44.3603 32.6745 42.7294 25.626 39.7482 20.2406Z" fill="black"/>
<path fill-rule="evenodd" clip-rule="evenodd" d="M5.10259 40.0775C5.10259 22.5882 14.0761 8.4104 25.145 8.4104C36.167 8.4104 45.0801 22.4672 45.1566 39.8533C45.1571 39.7877 45.1875 39.7229 45.1875 39.657C45.1875 21.9357 36.0954 7.5694 24.8789 7.5694C13.6632 7.5694 4.57031 21.9357 4.57031 39.657C4.57031 57.3786 13.6629 71.7449 24.8789 71.7449C24.9204 71.7449 24.9614 71.7425 25.0029 71.7416C13.9993 71.6211 5.10259 57.4917 5.10259 40.0775ZM45.1859 39.8533C45.1195 57.4188 36.1208 71.6367 25.0029 71.7416C25.0506 71.7425 25.0976 71.7453 25.145 71.7453C36.2145 71.7453 45.188 57.5672 45.188 40.0775C45.188 40.0029 45.1864 39.9279 45.1859 39.8533Z" fill="black"/>
<path d="M25.0029 71.7416C24.9614 71.7425 24.9204 71.7449 24.8789 71.7449C13.6629 71.7449 4.57031 57.3786 4.57031 39.657C4.57031 21.9357 13.6632 7.5694 24.8789 7.5694C36.0954 7.5694 45.1875 21.9357 45.1875 39.657C45.1875 39.7229 45.1571 39.7877 45.1566 39.8533C45.0801 22.4672 36.167 8.4104 25.145 8.4104C14.0761 8.4104 5.10259 22.5882 5.10259 40.0775C5.10259 57.4917 13.9993 71.6211 25.0029 71.7416ZM25.0029 71.7416C36.1208 71.6367 45.1195 57.4188 45.1859 39.8533C45.1864 39.9279 45.188 40.0029 45.188 40.0775C45.188 57.5672 36.2145 71.7453 25.145 71.7453C25.0976 71.7453 25.0506 71.7425 25.0029 71.7416Z" stroke="black" stroke-width="5.8753" stroke-miterlimit="2.613"/>
</g>
<rect x="0.5" y="0.5" width="49" height="78" stroke="black"/>
<defs>
<clipPath id="clip0_7_150">
<rect width="50" height="79" fill="white"/>
</clipPath>
</defs>
</svg>
