<svg width="142" height="30" viewBox="0 0 142 30" fill="none" xmlns="http://www.w3.org/2000/svg">
<path d="M8.24 23.33C6.76 23.33 5.4 22.91 4.16 22.07C2.92 21.23 1.93 20.01 1.19 18.41C0.45 16.79 0.0800001 14.82 0.0800001 12.5C0.0800001 10.18 0.45 8.22 1.19 6.62C1.93 5 2.92 3.77 4.16 2.93C5.4 2.09 6.76 1.67 8.24 1.67C9.48 1.67 10.61 1.94 11.63 2.48C12.67 3 13.56 3.77 14.3 4.79C15.06 5.79 15.61 7.01 15.95 8.45L12.71 9.38C12.41 7.92 11.85 6.81 11.03 6.05C10.23 5.29 9.32 4.91 8.3 4.91C7.44 4.91 6.66 5.19 5.96 5.75C5.28 6.31 4.73 7.16 4.31 8.3C3.91 9.42 3.71 10.82 3.71 12.5C3.71 14.18 3.91 15.59 4.31 16.73C4.73 17.85 5.28 18.69 5.96 19.25C6.66 19.81 7.44 20.09 8.3 20.09C9.32 20.09 10.23 19.71 11.03 18.95C11.85 18.19 12.41 17.08 12.71 15.62L15.95 16.55C15.61 17.97 15.06 19.19 14.3 20.21C13.56 21.23 12.67 22.01 11.63 22.55C10.61 23.07 9.48 23.33 8.24 23.33ZM25.9883 23.3C24.5683 23.3 23.2883 22.96 22.1483 22.28C21.0083 21.58 20.1083 20.65 19.4483 19.49C18.7883 18.31 18.4583 16.98 18.4583 15.5C18.4583 14.04 18.7883 12.73 19.4483 11.57C20.1083 10.39 21.0083 9.46 22.1483 8.78C23.2883 8.08 24.5683 7.73 25.9883 7.73C27.4083 7.73 28.6883 8.08 29.8283 8.78C30.9683 9.46 31.8683 10.39 32.5283 11.57C33.1883 12.73 33.5183 14.04 33.5183 15.5C33.5183 16.98 33.1883 18.31 32.5283 19.49C31.8683 20.65 30.9683 21.58 29.8283 22.28C28.7083 22.96 27.4283 23.3 25.9883 23.3ZM25.9883 20.39C26.8083 20.39 27.5283 20.18 28.1483 19.76C28.7883 19.34 29.2883 18.76 29.6483 18.02C30.0283 17.28 30.2183 16.44 30.2183 15.5C30.2183 14.56 30.0283 13.73 29.6483 13.01C29.2883 12.27 28.7883 11.69 28.1483 11.27C27.5283 10.85 26.8083 10.64 25.9883 10.64C25.1683 10.64 24.4383 10.86 23.7983 11.3C23.1783 11.72 22.6783 12.3 22.2983 13.04C21.9383 13.76 21.7583 14.58 21.7583 15.5C21.7583 16.44 21.9383 17.28 22.2983 18.02C22.6783 18.76 23.1783 19.34 23.7983 19.76C24.4383 20.18 25.1683 20.39 25.9883 20.39ZM43.9766 23.3C42.5566 23.3 41.2766 22.96 40.1366 22.28C38.9966 21.58 38.0966 20.65 37.4366 19.49C36.7766 18.31 36.4466 16.98 36.4466 15.5C36.4466 14.04 36.7766 12.73 37.4366 11.57C38.0966 10.39 38.9966 9.46 40.1366 8.78C41.2766 8.08 42.5566 7.73 43.9766 7.73C45.3966 7.73 46.6766 8.08 47.8166 8.78C48.9566 9.46 49.8566 10.39 50.5166 11.57C51.1766 12.73 51.5066 14.04 51.5066 15.5C51.5066 16.98 51.1766 18.31 50.5166 19.49C49.8566 20.65 48.9566 21.58 47.8166 22.28C46.6966 22.96 45.4166 23.3 43.9766 23.3ZM43.9766 20.39C44.7966 20.39 45.5166 20.18 46.1366 19.76C46.7766 19.34 47.2766 18.76 47.6366 18.02C48.0166 17.28 48.2066 16.44 48.2066 15.5C48.2066 14.56 48.0166 13.73 47.6366 13.01C47.2766 12.27 46.7766 11.69 46.1366 11.27C45.5166 10.85 44.7966 10.64 43.9766 10.64C43.1566 10.64 42.4266 10.86 41.7866 11.3C41.1666 11.72 40.6666 12.3 40.2866 13.04C39.9266 13.76 39.7466 14.58 39.7466 15.5C39.7466 16.44 39.9266 17.28 40.2866 18.02C40.6666 18.76 41.1666 19.34 41.7866 19.76C42.4266 20.18 43.1566 20.39 43.9766 20.39ZM65.5048 23.3C63.7048 23.3 62.3248 22.87 61.3648 22.01C60.4248 21.15 59.9548 19.88 59.9548 18.2V3.86H54.5548V1.19H63.3448V17.84C63.3448 18.74 63.5548 19.39 63.9748 19.79C64.4148 20.19 65.0848 20.39 65.9848 20.39C66.4648 20.39 66.9448 20.34 67.4248 20.24C67.9048 20.14 68.4348 19.98 69.0148 19.76V22.61C68.5548 22.79 68.0048 22.95 67.3648 23.09C66.7248 23.23 66.1048 23.3 65.5048 23.3ZM74.7331 15.92V13.1H85.1731V15.92H74.7331ZM100.581 5.03C99.9014 5.03 99.3214 4.79 98.8414 4.31C98.3814 3.83 98.1514 3.26 98.1514 2.6C98.1514 1.94 98.3814 1.38 98.8414 0.919998C99.3214 0.439998 99.9014 0.199998 100.581 0.199998C101.241 0.199998 101.801 0.439998 102.261 0.919998C102.741 1.38 102.981 1.94 102.981 2.6C102.981 3.26 102.741 3.83 102.261 4.31C101.801 4.79 101.241 5.03 100.581 5.03ZM95.6914 29.57C95.0514 29.57 94.3714 29.5 93.6514 29.36C92.9314 29.24 92.2314 29.08 91.5514 28.88V25.85C92.4514 26.15 93.2114 26.35 93.8314 26.45C94.4514 26.57 95.0814 26.63 95.7214 26.63C96.8214 26.63 97.6214 26.38 98.1214 25.88C98.6214 25.4 98.8714 24.57 98.8714 23.39V10.67H91.5514V7.97H102.261V23.9C102.261 27.68 100.071 29.57 95.6914 29.57ZM115.93 23.3C114.51 23.3 113.23 22.96 112.09 22.28C110.95 21.58 110.05 20.65 109.39 19.49C108.73 18.31 108.4 16.98 108.4 15.5C108.4 14.04 108.73 12.73 109.39 11.57C110.05 10.39 110.95 9.46 112.09 8.78C113.23 8.08 114.51 7.73 115.93 7.73C117.35 7.73 118.63 8.08 119.77 8.78C120.91 9.46 121.81 10.39 122.47 11.57C123.13 12.73 123.46 14.04 123.46 15.5C123.46 16.98 123.13 18.31 122.47 19.49C121.81 20.65 120.91 21.58 119.77 22.28C118.65 22.96 117.37 23.3 115.93 23.3ZM115.93 20.39C116.75 20.39 117.47 20.18 118.09 19.76C118.73 19.34 119.23 18.76 119.59 18.02C119.97 17.28 120.16 16.44 120.16 15.5C120.16 14.56 119.97 13.73 119.59 13.01C119.23 12.27 118.73 11.69 118.09 11.27C117.47 10.85 116.75 10.64 115.93 10.64C115.11 10.64 114.38 10.86 113.74 11.3C113.12 11.72 112.62 12.3 112.24 13.04C111.88 13.76 111.7 14.58 111.7 15.5C111.7 16.44 111.88 17.28 112.24 18.02C112.62 18.76 113.12 19.34 113.74 19.76C114.38 20.18 115.11 20.39 115.93 20.39ZM127.228 23V1.4L130.618 0.829999V9.59C131.158 9.01 131.778 8.56 132.478 8.24C133.178 7.92 133.928 7.76 134.728 7.76C136.008 7.76 137.158 8.11 138.178 8.81C139.218 9.49 140.048 10.41 140.668 11.57C141.288 12.73 141.598 14.04 141.598 15.5C141.598 16.94 141.288 18.25 140.668 19.43C140.068 20.59 139.258 21.51 138.238 22.19C137.218 22.87 136.068 23.21 134.788 23.21C133.928 23.21 133.138 23.05 132.418 22.73C131.698 22.39 131.068 21.9 130.528 21.26V23H127.228ZM133.978 20.42C134.818 20.42 135.558 20.21 136.198 19.79C136.838 19.37 137.338 18.79 137.698 18.05C138.058 17.29 138.238 16.44 138.238 15.5C138.238 14.52 138.058 13.66 137.698 12.92C137.338 12.18 136.838 11.6 136.198 11.18C135.558 10.76 134.818 10.55 133.978 10.55C133.318 10.55 132.698 10.69 132.118 10.97C131.538 11.23 131.038 11.6 130.618 12.08V18.92C131.018 19.4 131.508 19.77 132.088 20.03C132.668 20.29 133.298 20.42 133.978 20.42Z" fill="#CC4E4E"/>
</svg>
