<svg width="94" height="106" viewBox="0 0 94 106" fill="none" xmlns="http://www.w3.org/2000/svg">
<g clip-path="url(#clip0_6_61)">
<rect width="94" height="106" fill="#715959" fill-opacity="0.2"/>
<path fill-rule="evenodd" clip-rule="evenodd" d="M0 0H94V106H0V0Z" fill="white"/>
<path fill-rule="evenodd" clip-rule="evenodd" d="M88.8717 40.2969C87.2859 37.8877 86.3135 39.736 80.3625 42.4471C74.4106 45.1697 71.2539 43.8818 69.8539 43.3627C68.444 42.8463 65.9087 41.6706 62.3302 40.072L62.8208 39.009C62.8208 39.009 63.4484 38.6735 64.3686 37.3686C65.281 36.0565 64.9421 34.3985 64.7602 33.1546C64.7602 33.1546 65.0509 31.4702 63.9546 29.7517C62.8515 28.0227 60.203 26.8751 60.203 26.8751C57.6359 22.9866 53.9755 22.8321 53.9755 22.8321C52.5877 21.2334 51.4694 21.1477 51.4694 21.1477C51.2246 14.7648 47.555 13.8931 47.555 13.8931L47.1117 14.652C46.2997 14.5151 45.755 14.635 45.755 14.635L45.3883 13.8222C41.7274 15.7931 41.267 19.7228 41.267 19.7228L40.5004 19.8015C35.2546 17.0029 33.2308 19.9213 33.2308 19.9213C31.4006 19.378 29.6095 19.7058 29.6095 19.7058C29.0038 19.2895 26.385 18.7973 25.8252 18.876C25.3429 18.9447 25.6189 20.7512 25.6189 20.7512C25.0522 20.7072 24.6007 21.0448 24.1164 21.0795C23.6341 21.1213 23.3522 21.2609 23.1674 21.9164C22.9831 22.5654 23.1523 22.556 23.3586 23.2115C23.5585 23.8775 23.0977 26.0029 23.1435 27.1583C23.1825 28.3263 26.1466 29.1292 27.0346 29.5944C27.7319 29.9568 27.1277 30.8037 28.7131 31.193C30.7886 31.7022 32.8583 29.4228 32.8583 29.4228C33.5922 29.7511 33.9067 30.2675 34.4802 31.3228C35.0469 32.3852 36.1973 32.6179 37.4613 33.5753C38.7249 34.5448 39.9123 36.6262 39.9123 36.6262C38.5708 35.588 37.3155 34.795 37.3155 34.795C37.3155 34.795 36.4728 33.1716 34.5192 32.5739C32.5652 31.9788 28.9584 35.5979 28.9584 35.5979C28.5522 37.6617 27.1194 43.3792 26.7371 45.5486C26.6184 46.2226 26.5113 46.8992 26.4157 47.5778L25.8642 47.7862C25.7403 49.6593 25.3887 51.4393 25.1366 52.2422L13.9374 54.7817L6.50739 63.4446L4.14758 72.3692V73.3948C4.21894 73.6503 4.33997 73.8847 4.50183 74.0807C4.6637 74.2768 4.86232 74.4297 5.08323 74.5282C5.30414 74.6267 5.54176 74.6684 5.77877 74.6503C6.01578 74.6321 6.24621 74.5545 6.45325 74.4232C6.45325 74.4232 8.46828 73.0836 9.25634 72.6354C9.9537 72.2295 10.7047 71.8935 11.8229 71.6345V79.4769L10.1985 82.6301C10.0611 82.9045 9.98775 83.2137 9.9854 83.5287V87.6646C9.9854 88.605 10.6281 89.3837 11.4445 89.4546H80.0382C81.0745 89.3881 81.5953 88.3163 81.5953 87.5882V73.3948C82.0011 73.6296 83.1261 74.2862 83.1261 74.2862C83.412 74.4491 83.7344 74.5123 84.0523 74.4678C84.3702 74.4232 84.6691 74.2729 84.9109 74.036C85.1506 73.797 85.3206 73.4817 85.3985 73.1317C85.4764 72.7818 85.4586 72.4134 85.3474 72.075L82.4921 63.4446C82.4834 63.4204 74.6086 54.8433 74.6086 54.8433C74.6086 54.8433 72.4351 54.3506 69.593 53.7023C69.0175 51.8023 68.5576 50.257 68.5576 50.257C67.8603 48.5726 66.8811 49.1599 66.8811 48.4599C66.8723 47.4409 66.5592 47.2677 66.7114 46.6111C66.8655 45.955 66.6265 45.1934 66.6265 45.1934C69.6841 46.9828 75.2138 49.331 78.0798 49.1594C80.9506 48.9856 86.3739 46.6446 88.2349 45.1587C89.2004 44.3921 89.7569 43.763 89.8519 42.9965V42.4944C89.7798 41.8939 89.4623 41.1911 88.8717 40.2969ZM21.3826 62.132V61.2603C21.5581 61.3808 21.7493 61.4858 21.9556 61.5886V61.6326L21.3826 62.132ZM23.0216 55.3256C22.9304 55.3795 22.8368 55.4383 22.7305 55.4895C22.1789 55.7661 21.7337 56.0427 21.3821 56.3292V55.6979L23.0216 55.3256ZM14.3739 57.9531V62.3915H10.3287L14.3734 57.7788L14.3739 57.9531ZM15.3702 62.3915V59.1184L19.0462 62.3915H15.3702ZM15.3702 57.6765V57.0546L20.3858 55.9228V57.4505C20.2876 57.6159 20.2005 57.7895 20.1254 57.9696C19.843 58.6356 19.865 59.5149 20.3858 60.3002V62.1418L15.3702 57.6765ZM28.9794 62.3915C29.4246 62.0027 29.8152 61.6744 30.0761 61.4594L31.11 62.3915H28.9794ZM30.5584 60.4575C30.5214 60.3887 30.4824 60.3178 30.4434 60.2325C30.337 59.9823 30.161 59.7843 30.0069 59.6546C30.3912 59.2036 30.734 58.7285 31.1402 58.0477C31.7547 57.0199 31.4787 55.4477 31.722 54.6278C31.822 54.2896 31.9454 53.8931 32.1126 53.4867V61.8553L30.5584 60.4575ZM33.1157 53.2442H42.6759L33.1157 61.8553V53.2442ZM37.6973 62.3915H34.1213L37.6973 59.1701V62.3915ZM38.7005 62.3915V59.0915L42.5091 62.3915H38.7005ZM43.8487 62.132L39.037 57.9597L43.8487 53.6236V62.132ZM50.0065 62.3915H46.191L50.0065 59.0915V62.3915ZM44.8514 62.132V53.6242L49.669 57.9603L44.8514 62.132ZM51.0028 62.3915V59.1701L54.5793 62.3915H51.0028ZM55.5824 61.8553L46.0242 53.2442H55.5824V61.8553ZM61.1666 62.3915H57.5901L61.1666 59.1701V62.3915ZM56.587 61.8553V53.3569L64.1389 55.049L56.587 61.8553ZM62.1629 62.3915V59.0915L65.9774 62.3915H62.1629ZM67.3175 62.132L62.5087 57.9597L65.5088 55.3526L67.3175 55.7589V62.132ZM73.3294 62.3915H69.6539L73.3294 59.1184V62.3915ZM74.3267 58.1071L77.8954 62.3915H74.3267V58.1071ZM73.3294 57.6765L68.3206 62.1424V55.9822L73.3294 57.1057V57.6765ZM56.5241 50.7398H33.7458C34.1213 49.8341 34.2583 48.8135 34.2583 48.8135C34.7709 48.6073 35.4156 47.5696 35.8823 47.0356C36.1037 46.7837 36.4031 46.3966 37.5213 46.8618C41.1515 48.3653 42.4087 47.9072 42.4087 47.9072C43.0212 48.3554 43.9024 49.0214 44.5753 48.4681C45.6872 47.5624 47.5174 47.2 47.5174 47.2C48.4357 48.1668 49.5003 47.9342 50.9632 48.3136C52.4262 48.6931 51.7689 49.0483 52.3814 49.2193C52.9871 49.3931 53.4079 48.4505 53.4079 48.4505C55.0845 49.9293 59.2808 49.3931 59.2808 49.3931C59.2808 49.3931 60.3313 49.8165 61.1895 50.169C62.0469 50.5314 62.3687 50.0832 63.0115 50.9719C63.4562 51.5939 64.038 52.1982 64.3594 52.5194C61.7483 51.9221 59.1366 51.3289 56.5241 50.7398Z" fill="black"/>
<path fill-rule="evenodd" clip-rule="evenodd" d="M26.27 56.7334L26.3851 56.8632H26.231L26.27 56.7334Z" fill="black"/>
<path fill-rule="evenodd" clip-rule="evenodd" d="M37.0458 83.6151H29.7157L31.1787 80.7384V75.0803L28.3756 76.9456V71.1594H38.4785V76.9451L35.6755 75.0798V80.7478L37.0458 83.6151ZM46.0759 78.1379L45.2727 75.5203L44.4217 78.1379H46.0759ZM66.0383 74.0366V80.7384L67.2936 83.2087L67.5086 83.6151H62.0385L58.2869 78.2605V80.7478L59.6578 83.6151H45.3029L46.1846 81.0931H44.391L45.2727 83.6151H37.4759L39.528 80.6867L41.3582 73.9832L40.1551 71.16H50.4122L49.2871 73.9755L51.1178 80.6867L52.6486 82.976L53.7907 80.7384V74.0366L52.3209 71.16H58.2869L61.5416 76.3677V71.16H67.5086L66.0383 74.0366ZM81.25 64.6979H7.77967L5.66516 72.8614C5.66516 72.8614 6.75948 72.075 8.48337 71.0742C9.5255 70.4687 11.2645 69.6834 13.4078 69.6295V79.9619L11.5708 83.6151H27.8095L26.4308 80.7478V74.0267L27.8095 71.1594H20.4706L21.9336 74.036V80.7379L20.6311 83.3038L19.0613 79.9619V69.6218H73.2294C76.1564 69.6218 79.787 69.9402 83.8629 72.697L81.25 64.6979ZM77.2136 75.6083H72.9475V74.8054H77.5053L80.0114 76.4799V71.1594H69.5324L67.8305 73.9827V77.1266L71.0783 79.1052H75.1455V80.0208H71.0174L67.8305 78.018V83.6151H78.4021L80.1328 81.6463V77.396L77.2136 75.6083Z" fill="#7F3833"/>
<path fill-rule="evenodd" clip-rule="evenodd" d="M20.4706 71.1594H27.8095L26.3767 72.1168H21.9492L22.7919 73.777V80.9974L21.9492 82.6554L20.4706 83.6151L21.9336 80.7384V74.0366L20.4706 71.1594ZM32.037 73.3954L31.1792 75.0798V80.7379L29.7162 83.6145L31.186 82.6549L32.0375 80.9969L32.037 73.3954ZM69.532 71.1594L67.83 73.8969V77.1266L68.6873 76.5486V74.2005L69.9752 72.1168H79.1511L80.0026 71.1594H69.532ZM14.2588 80.2111V68.6892C13.8677 69.1198 13.3922 69.6295 13.4073 69.6295V79.9619L11.5703 83.6151L13.0338 82.6554L14.2588 80.2111ZM42.2696 73.9068L41.5118 72.1168H49.0872L50.4122 71.1594H40.1551L41.3582 73.9827L39.528 80.6862L37.4759 83.6145L39.2369 82.6549L40.2941 81.1443L42.2696 73.9068ZM80.6531 65.6652L81.2349 64.6979H7.77967L5.66516 72.8614L7.07451 70.8658L8.41412 65.6652H80.6531ZM37.6276 72.1174L38.479 71.16H28.3761V76.9456L29.2339 75.2618V72.1179H37.6276V72.1174ZM61.5416 76.3671L62.3931 79.4082L62.3999 72.1168H66.0296L67.5086 71.1594H61.5416V76.3671ZM68.6873 79.6578L70.796 80.9875H76.0023L75.145 80.0202H71.0169L67.83 78.0174V83.5799L68.6873 82.6373V79.6578ZM72.9475 75.6083L72.0902 76.5756H76.9991L79.2813 77.9663L80.1318 77.3856L77.2136 75.6083H72.9475ZM57.4301 75.5373L58.2874 78.2842V78.26L62.039 83.6145H62.0478L62.4545 82.6549L57.4301 75.4856V75.5373ZM45.3029 72.9131L45.2727 75.5203L46.0759 78.1379H44.4212L43.2879 79.0975H47.2111L45.3029 72.9131ZM47.3633 80.1258L46.1846 81.0931L45.3029 83.6151L46.5601 82.6554L47.433 80.1258H47.3633ZM54.6421 73.777L53.7975 72.1168H57.8427L58.2874 71.1594H52.3214L53.7912 74.036V80.7379L52.3214 83.6145L53.7975 82.6549L54.6421 80.9969V73.777Z" fill="#9EA0A0"/>
<path fill-rule="evenodd" clip-rule="evenodd" d="M43.0426 71.1594L43.6332 72.1168H42.8666L42.278 71.1594H43.0426ZM47.5091 64.6979H43.718L44.2608 65.6652H48.0451L47.5091 64.6979ZM42.9822 65.6652H43.74L43.2055 64.6979H42.4394L42.9822 65.6652ZM41.5123 72.1174H42.2789L41.6884 71.16H40.9218L41.5275 72.152L41.5123 72.1174ZM38.7307 64.6979H37.9665L38.5005 65.6652H39.2671L38.7307 64.6979ZM31.6849 71.1594H30.9188L31.4616 72.1168H32.2214L31.6849 71.1594ZM26.3762 72.1174L27.1272 71.6081L26.8732 71.16H25.4575L25.9934 72.1174H26.3762ZM17.7978 64.6979H16.4494L16.9921 65.6652H18.3337L17.7978 64.6979ZM30.6579 72.1174L30.0674 71.16H29.3032L29.8913 72.1174H30.6579ZM22.0492 71.1594L22.592 72.1168H25.2039L24.6611 71.1594H22.0492ZM21.9341 77.1266L22.7919 78.6564V76.255L21.9341 74.7344V77.1266ZM31.1792 78.5712L32.037 79.9691V78.7186L31.1792 77.3102V78.5712ZM46.2388 81.0414L46.1846 81.0931L45.6331 82.6824L45.9086 83.157L46.5597 82.6554L46.7898 81.9747L46.2388 81.0414ZM21.9341 78.3529V80.7472L22.4467 81.6705L22.7919 80.9969V79.8833L21.9341 78.3529ZM31.1792 79.3911V80.6521L31.7376 81.5754L32.0375 80.9974V80.7995L31.1792 79.3911ZM60.715 81.7222L62.0391 83.6145H62.0478L62.4545 82.6549L59.2057 78.0174L60.715 81.7222ZM67.8301 78.018V80.6356L68.6874 82.0676V79.6584L67.8301 78.018ZM13.4073 76.1692L14.2588 77.6897V74.1229L13.4073 72.6018V76.1692ZM13.4073 69.6295V71.9183L14.2588 73.4394V71.133C14.2588 71.133 13.401 69.6295 13.4073 69.6295ZM6.72196 68.7744L6.46155 69.7934L7.07357 70.8658L7.33398 69.8644L6.72196 68.7744ZM14.2588 78.6812L13.4073 77.1629V78.6905L14.2588 80.2111V78.6812ZM7.40371 66.1502L6.97408 67.7906L7.58659 68.8778L8.00793 67.2374L7.40371 66.1502ZM15.0317 64.6979H8.23128L8.76771 65.6652H15.5765L15.0317 64.6979ZM53.7449 64.6979H48.7273L49.2637 65.6652H54.2813L53.7449 64.6979ZM53.5991 71.1594L54.1726 72.1168H55.7604L55.184 71.1594H53.5991ZM57.9661 71.86L57.5506 71.16H55.9569L56.5324 72.1174H57.8422L57.9661 71.86ZM62.3931 79.4082V79.2344L62.2473 78.8649L62.3931 79.4082ZM65.4717 65.6652H67.8232L67.2785 64.6979H64.9353L65.4717 65.6652ZM81.2349 64.6979H76.4714L77.0079 65.6652H80.6532L81.2349 64.6979ZM54.6422 78.0862L53.7907 76.6613V79.3229L54.6422 80.7549V78.0862ZM76.8991 75.6083H73.1085L73.684 76.5756H76.9996L77.7511 77.0336L76.8991 75.6083ZM74.8475 80.0208H71.0559L71.6294 80.9881H75.42L74.8475 80.0208ZM61.5416 74.8131L62.3999 76.2473V73.5856L61.5416 72.1515V74.8131ZM33.3918 71.1594H32.6276L33.1704 72.1168H33.9282L33.3918 71.1594ZM64.8743 71.1594H64.017L64.5905 72.1168H65.4561L64.8743 71.1594ZM65.441 71.1594H65.1352L65.7087 72.1168H66.0145L65.441 71.1594ZM62.063 71.1594L62.6384 72.1168H64.2233L63.6479 71.1594H62.063ZM45.3029 72.9131L45.2727 75.5203L46.0759 78.1379H45.6872L46.2061 79.0975H47.2117L45.3029 72.9131ZM45.5029 79.0975L44.9211 78.1379H44.4217L44.2457 78.2847L44.7363 79.098L45.5029 79.0975ZM44.2847 72.1174H47.1878L46.4758 71.16H43.7639L44.2847 72.1174ZM41.2363 74.416L40.2483 78.0521L40.8691 79.0628L41.8571 75.4345L41.2363 74.416ZM40.6394 79.8839L40.0269 78.8649L39.788 79.7365L40.4005 80.7478L40.6394 79.8839ZM69.432 72.9983L68.9112 72.1614L68.0997 73.4663L68.6874 74.4237V74.201L69.432 72.9983ZM74.3574 72.1174H78.1568L77.5814 71.16H73.781L74.3574 72.1174ZM71.4627 71.1594H69.8748L70.4503 72.1168H72.0361L71.4627 71.1594ZM68.5815 65.6652H75.3908L74.8534 64.6979H68.0451L68.5815 65.6652ZM73.0173 71.1594H72.159L72.7325 72.1168H73.5908L73.0173 71.1594Z" fill="white"/>
<path fill-rule="evenodd" clip-rule="evenodd" d="M18.816 68.6551H18.2104V80.2017L18.2796 80.3491L19.3613 82.6554H13.0343L14.2588 80.2116V68.6551H13.6532C9.60166 68.6551 7.0741 70.8663 7.0741 70.8663L8.41371 65.6657H80.6532L82.3771 70.9449C82.3771 70.9449 79.475 68.6556 74.2726 68.6556L18.816 68.6551ZM22.7915 80.9974V73.777L21.9488 72.1168H26.3763L25.5794 73.7842V80.9875L26.3763 82.6549H21.9488L22.7915 80.9974ZM32.0371 80.9974V73.3954L29.234 75.2612V72.1173H37.6277V75.2612L34.8246 73.3954V80.9881L35.6214 82.6554H31.1856L32.0371 80.9974ZM68.6874 82.6554V79.6584L70.7961 80.9881H76.0024V78.1477H71.2935L68.6874 76.5491V74.201L69.9753 72.1173H79.1512V74.7867L77.7414 73.8358H72.0903V76.5755H76.9991L79.2814 77.9663V81.2471L78.0413 82.6554H68.6874ZM57.4302 75.4861V80.9881L58.2266 82.6554H53.7976L54.6422 80.9974V73.777L53.7976 72.1168H57.8428L62.3936 79.4082L62.4005 72.1168H66.0301L65.1879 73.777V80.9974L66.0301 82.6554H62.4546L57.4302 75.4861ZM45.303 72.9131L43.288 79.0975H47.2112L45.303 72.9131ZM46.5602 82.6554L47.4331 80.1258H43.1431L44.016 82.6554H39.2369L40.2942 81.1448L42.2697 73.9073L41.5119 72.1173H49.0873L48.3758 73.9145L50.3425 81.1355L51.369 82.656H46.5602V82.6554Z" fill="#C23C40"/>
<path fill-rule="evenodd" clip-rule="evenodd" d="M10.0312 66.9949C10.038 67.0488 10.0463 67.0999 10.0463 67.1516C10.0463 67.5921 9.72496 67.9545 9.33434 67.9545C9.25583 67.9545 9.19536 67.9446 9.1344 67.9204C9.20414 68.0914 9.34068 68.2212 9.53136 68.2993C9.90734 68.3851 10.1829 68.1959 10.3067 67.7802C10.3589 67.4359 10.2614 67.1593 10.0312 66.9949Z" fill="#7F3833"/>
<path fill-rule="evenodd" clip-rule="evenodd" d="M8.98907 67.3594C8.98907 67.0218 9.23437 66.7545 9.5255 66.7545H9.59524C9.5383 66.6987 9.47288 66.6549 9.40212 66.6253C9.15878 66.5736 8.97444 66.6935 8.89837 66.9602C8.86813 67.134 8.90519 67.2885 8.98956 67.3935L8.98907 67.3594Z" fill="#DAA38C"/>
<path fill-rule="evenodd" clip-rule="evenodd" d="M24.3159 66.9949C24.3247 67.0488 24.331 67.0999 24.331 67.1516C24.331 67.5921 24.0096 67.9545 23.619 67.9545C23.5493 67.9545 23.482 67.9446 23.4191 67.9204C23.4971 68.0914 23.6278 68.2212 23.8253 68.2993C24.1945 68.3851 24.4763 68.1959 24.5914 67.7802C24.646 67.4359 24.5461 67.1593 24.3159 66.9949Z" fill="#7F3833"/>
<path fill-rule="evenodd" clip-rule="evenodd" d="M23.2738 67.3594C23.2738 67.0218 23.5191 66.7545 23.819 66.7545H23.8799C23.8248 66.6971 23.7597 66.6531 23.6888 66.6253C23.4498 66.5736 23.2674 66.6935 23.1826 66.9602C23.1587 67.134 23.1894 67.2885 23.2825 67.3935C23.2825 67.3842 23.2738 67.3765 23.2738 67.3594Z" fill="#DAA38C"/>
<path fill-rule="evenodd" clip-rule="evenodd" d="M37.988 66.9949C37.9968 67.0488 38.0031 67.0999 38.0031 67.1516C38.0031 67.5921 37.6822 67.9545 37.2911 67.9545C37.2233 67.9555 37.1557 67.944 37.0912 67.9204C37.1697 68.0914 37.2994 68.2212 37.4974 68.2993C37.8666 68.3851 38.1489 68.1959 38.264 67.7802C38.3181 67.4359 38.2182 67.1593 37.988 66.9949Z" fill="#7F3833"/>
<path fill-rule="evenodd" clip-rule="evenodd" d="M36.9458 67.3594C36.9458 67.0218 37.1911 66.7545 37.4905 66.7545H37.5515C37.4963 66.6971 37.4312 66.6531 37.3603 66.6253C37.1213 66.5736 36.939 66.6935 36.8541 66.9602C36.8302 67.134 36.8629 67.2885 36.9541 67.3935C36.9546 67.3842 36.9458 67.3765 36.9458 67.3594Z" fill="#DAA38C"/>
<path fill-rule="evenodd" clip-rule="evenodd" d="M51.6611 66.9949C51.6699 67.0488 51.6762 67.0999 51.6762 67.1516C51.6762 67.5921 51.3544 67.9545 50.9637 67.9545C50.894 67.9545 50.8267 67.9446 50.7638 67.9204C50.8418 68.0914 50.9725 68.2212 51.1705 68.2993C51.5392 68.3851 51.8152 68.1959 51.9361 67.7802C51.9903 67.4359 51.8903 67.1593 51.6611 66.9949Z" fill="#7F3833"/>
<path fill-rule="evenodd" clip-rule="evenodd" d="M50.619 67.3594C50.619 67.0218 50.8638 66.7545 51.1637 66.7545H51.2247C51.1694 66.6969 51.1041 66.6529 51.033 66.6253C50.796 66.5736 50.6121 66.6935 50.5273 66.9602C50.5054 67.134 50.5361 67.2885 50.6273 67.3935C50.6273 67.3842 50.619 67.3765 50.619 67.3594Z" fill="#DAA38C"/>
<path fill-rule="evenodd" clip-rule="evenodd" d="M65.3327 66.9949C65.3415 67.0488 65.3478 67.0999 65.3478 67.1516C65.3478 67.5921 65.027 67.9545 64.6363 67.9545C64.5686 67.9545 64.4993 67.9446 64.4384 67.9204C64.5144 68.0914 64.6451 68.2212 64.8441 68.2993C65.2118 68.3851 65.4868 68.1959 65.6088 67.7802C65.6629 67.4359 65.5629 67.1593 65.3327 66.9949Z" fill="#7F3833"/>
<path fill-rule="evenodd" clip-rule="evenodd" d="M64.2926 67.3594C64.2926 67.0218 64.5364 66.7545 64.8353 66.7545H64.8963C64.8413 66.6972 64.7764 66.6532 64.7056 66.6253C64.4686 66.5736 64.2838 66.6935 64.1999 66.9602C64.178 67.134 64.2087 67.2885 64.2989 67.3935C64.2994 67.3842 64.2926 67.3765 64.2926 67.3594Z" fill="#DAA38C"/>
<path fill-rule="evenodd" clip-rule="evenodd" d="M16.6947 80.4612C16.7015 80.5124 16.7015 80.5663 16.7015 80.618C16.7025 80.7427 16.6774 80.866 16.6284 80.9778C16.5793 81.0896 16.5076 81.1868 16.4191 81.2617C16.3306 81.3365 16.2277 81.3868 16.1188 81.4085C16.0098 81.4302 15.8979 81.4228 15.792 81.3868C15.8681 81.5583 16.0051 81.6881 16.1982 81.7662C16.5649 81.8514 16.8473 81.6628 16.9707 81.2564C17.0248 80.9017 16.9248 80.6251 16.6947 80.4612Z" fill="#7F3833"/>
<path fill-rule="evenodd" clip-rule="evenodd" d="M15.6525 80.8237C15.6525 80.4888 15.8978 80.2188 16.1889 80.2188C16.2128 80.2188 16.2348 80.2188 16.2499 80.2287C16.2002 80.1666 16.1375 80.1195 16.0675 80.0917C15.8222 80.0379 15.6379 80.1605 15.5613 80.4272C15.5311 80.6081 15.5682 80.7555 15.653 80.8677L15.6525 80.8237Z" fill="#DAA38C"/>
<path fill-rule="evenodd" clip-rule="evenodd" d="M24.7459 80.4612C24.7584 80.5122 24.7635 80.5652 24.7611 80.618C24.7618 80.7429 24.7366 80.8663 24.6873 80.9782C24.638 81.0901 24.5661 81.1874 24.4774 81.2622C24.3886 81.337 24.2855 81.3873 24.1764 81.4089C24.0673 81.4305 23.9552 81.4229 23.8491 81.3868C23.9252 81.5583 24.0637 81.6881 24.2553 81.7662C24.6221 81.8514 24.9064 81.6628 25.0283 81.2564C25.0824 80.9017 24.9737 80.6251 24.7459 80.4612Z" fill="#7F3833"/>
<path fill-rule="evenodd" clip-rule="evenodd" d="M23.7101 80.8237C23.7101 80.4888 23.9491 80.2188 24.2466 80.2188C24.2705 80.2188 24.2924 80.2188 24.3095 80.2287C24.2585 80.1672 24.1953 80.1203 24.1251 80.0917C23.8799 80.0379 23.695 80.1605 23.619 80.4272C23.5887 80.6081 23.6277 80.7555 23.7101 80.8677V80.8237Z" fill="#DAA38C"/>
<path fill-rule="evenodd" clip-rule="evenodd" d="M24.7459 73.6642C24.7584 73.7179 24.7635 73.7733 24.7611 73.8287C24.7611 74.2697 24.446 74.6316 24.0491 74.6316C23.9793 74.6316 23.9184 74.6145 23.8491 74.5975C23.9252 74.769 24.0637 74.8988 24.2553 74.9769C24.6221 75.0627 24.9064 74.8741 25.0283 74.4578C25.0824 74.113 24.9737 73.8358 24.7459 73.6642Z" fill="#7F3833"/>
<path fill-rule="evenodd" clip-rule="evenodd" d="M23.7101 74.0366C23.7101 73.6989 23.9491 73.4317 24.2466 73.4317H24.3095C24.2565 73.3747 24.1938 73.3305 24.1251 73.3019C23.8799 73.2508 23.695 73.3706 23.619 73.6373C23.5887 73.8111 23.6277 73.9656 23.7101 74.0707V74.0366Z" fill="#DAA38C"/>
<path fill-rule="evenodd" clip-rule="evenodd" d="M34.0433 73.6642C34.0644 73.781 34.0623 73.9016 34.0371 74.0174C34.012 74.1332 33.9643 74.2412 33.8977 74.3337C33.831 74.4262 33.747 74.5009 33.6517 74.5524C33.5564 74.6039 33.4521 74.6309 33.3464 74.6316C33.2796 74.6299 33.2132 74.6184 33.1489 74.5975C33.2162 74.769 33.3552 74.8988 33.5464 74.9769C33.9219 75.0627 34.1974 74.8741 34.3193 74.4578C34.373 74.113 34.2735 73.8358 34.0433 73.6642Z" fill="#7F3833"/>
<path fill-rule="evenodd" clip-rule="evenodd" d="M33.0031 74.0366C33.0031 73.6989 33.2465 73.4317 33.5371 73.4317H33.6069C33.5507 73.3755 33.4859 73.3315 33.4157 73.3019C33.1704 73.2508 32.9856 73.3706 32.9095 73.6373C32.8793 73.8111 32.9183 73.9656 33.0095 74.0707C33.0031 74.0613 33.0031 74.0536 33.0031 74.0366Z" fill="#DAA38C"/>
<path fill-rule="evenodd" clip-rule="evenodd" d="M43.994 73.6642C44.0003 73.7159 44.0091 73.777 44.0091 73.8287C44.0091 74.2697 43.6941 74.6316 43.2971 74.6316C43.2274 74.6316 43.1581 74.6145 43.0972 74.5975C43.1732 74.769 43.3122 74.8988 43.5034 74.9769C43.8701 75.0627 44.1544 74.8741 44.27 74.4578C44.3236 74.113 44.2242 73.8358 43.994 73.6642Z" fill="#7F3833"/>
<path fill-rule="evenodd" clip-rule="evenodd" d="M42.9602 74.0366C42.9602 73.6989 43.1968 73.4317 43.4967 73.4317H43.5576C43.5035 73.3725 43.4381 73.3281 43.3665 73.3019C43.1275 73.2508 42.9451 73.3706 42.8671 73.6373C42.8369 73.8111 42.8759 73.9656 42.9602 74.0707V74.0366Z" fill="#DAA38C"/>
<path fill-rule="evenodd" clip-rule="evenodd" d="M47.472 73.6642C47.4845 73.7179 47.4896 73.7733 47.4871 73.8287C47.4871 74.2697 47.1726 74.6316 46.7732 74.6316C46.7059 74.6316 46.6449 74.6145 46.5757 74.5975C46.6518 74.769 46.7907 74.8988 46.9819 74.9769C47.3486 75.0627 47.6334 74.8741 47.7553 74.4578C47.809 74.113 47.7002 73.8358 47.472 73.6642Z" fill="#7F3833"/>
<path fill-rule="evenodd" clip-rule="evenodd" d="M46.4368 74.0366C46.4368 73.6989 46.6757 73.4317 46.9732 73.4317H47.0341C46.9824 73.374 46.9202 73.3297 46.8518 73.3019C46.6065 73.2508 46.4221 73.3706 46.3461 73.6373C46.3158 73.8111 46.3524 73.9656 46.4373 74.0707L46.4368 74.0366Z" fill="#DAA38C"/>
<path fill-rule="evenodd" clip-rule="evenodd" d="M56.8635 73.6642C56.876 73.7179 56.8811 73.7733 56.8786 73.8287C56.8786 74.2697 56.5636 74.6316 56.1661 74.6316C56.0964 74.6316 56.0354 74.6145 55.9662 74.5975C56.0423 74.769 56.1812 74.8988 56.3719 74.9769C56.7396 75.0627 57.0234 74.8741 57.1385 74.4578C57.1995 74.113 57.0907 73.8358 56.8635 73.6642Z" fill="#7F3833"/>
<path fill-rule="evenodd" clip-rule="evenodd" d="M55.8272 74.0366C55.8272 73.6989 56.0662 73.4317 56.3636 73.4317H56.4246C56.3709 73.3722 56.3056 73.3277 56.2339 73.3019C55.9969 73.2508 55.8121 73.3706 55.7365 73.6373C55.7063 73.8111 55.7453 73.9656 55.8272 74.0707V74.0366Z" fill="#DAA38C"/>
<path fill-rule="evenodd" clip-rule="evenodd" d="M33.8604 80.4612C33.8729 80.5122 33.878 80.5652 33.8756 80.618C33.8763 80.7429 33.8511 80.8663 33.8018 80.9782C33.7525 81.0901 33.6806 81.1874 33.5919 81.2622C33.5031 81.337 33.4 81.3873 33.2909 81.4089C33.1818 81.4305 33.0697 81.4229 32.9636 81.3868C33.0397 81.5583 33.1787 81.6881 33.3698 81.7662C33.7366 81.8514 34.0214 81.6628 34.1428 81.2564C34.1974 80.9017 34.0887 80.6251 33.8604 80.4612Z" fill="#7F3833"/>
<path fill-rule="evenodd" clip-rule="evenodd" d="M32.8251 80.8237C32.8251 80.4888 33.0641 80.2188 33.3616 80.2188C33.3855 80.2188 33.4094 80.2188 33.4245 80.2287C33.3735 80.1672 33.3103 80.1203 33.2401 80.0917C32.9948 80.0379 32.81 80.1605 32.7339 80.4272C32.7037 80.6081 32.7427 80.7555 32.8251 80.8677V80.8237Z" fill="#DAA38C"/>
<path fill-rule="evenodd" clip-rule="evenodd" d="M42.3546 80.4612C42.3614 80.5124 42.3697 80.5663 42.3697 80.618C42.3697 81.0656 42.0483 81.4208 41.6577 81.4208C41.588 81.4208 41.5187 81.411 41.4578 81.3868C41.5275 81.5583 41.664 81.6881 41.8572 81.7662C42.2327 81.8514 42.5087 81.6628 42.6301 81.2564C42.6847 80.9017 42.5848 80.6251 42.3546 80.4612Z" fill="#7F3833"/>
<path fill-rule="evenodd" clip-rule="evenodd" d="M41.3124 80.8237C41.3124 80.4888 41.5577 80.2188 41.8572 80.2188C41.8723 80.2188 41.8942 80.2188 41.9181 80.2287C41.8635 80.1686 41.7984 80.122 41.727 80.0917C41.4817 80.0379 41.3056 80.1605 41.2208 80.4272C41.1905 80.6081 41.2276 80.7555 41.3207 80.8677C41.3124 80.8506 41.3124 80.8407 41.3124 80.8237Z" fill="#DAA38C"/>
<path fill-rule="evenodd" clip-rule="evenodd" d="M49.1633 80.4612C49.184 80.5776 49.1816 80.6977 49.1561 80.8129C49.1307 80.9281 49.0829 81.0355 49.0161 81.1273C48.9494 81.2191 48.8654 81.293 48.7703 81.3438C48.6752 81.3946 48.5712 81.4209 48.4659 81.4208C48.3962 81.4208 48.3299 81.411 48.267 81.3868C48.345 81.5583 48.4757 81.6881 48.6727 81.7662C49.0414 81.8514 49.3242 81.6628 49.4393 81.2564C49.4939 80.9017 49.394 80.6251 49.1633 80.4612Z" fill="#7F3833"/>
<path fill-rule="evenodd" clip-rule="evenodd" d="M48.1216 80.8237C48.1216 80.4888 48.3674 80.2188 48.6663 80.2188C48.6882 80.2188 48.7034 80.2188 48.7272 80.2287C48.6726 80.1684 48.6073 80.1217 48.5356 80.0917C48.2996 80.0379 48.1147 80.1605 48.0299 80.4272C48.006 80.6081 48.0387 80.7555 48.1299 80.8677C48.1299 80.8506 48.1216 80.8407 48.1216 80.8237Z" fill="#DAA38C"/>
<path fill-rule="evenodd" clip-rule="evenodd" d="M56.409 80.4612C56.4178 80.5124 56.4178 80.5663 56.4178 80.618C56.4185 80.7428 56.3933 80.8662 56.344 80.978C56.2948 81.0899 56.2229 81.1871 56.1342 81.2619C56.0456 81.3367 55.9425 81.387 55.8335 81.4087C55.7244 81.4303 55.6124 81.4228 55.5063 81.3868C55.5824 81.5583 55.7214 81.6881 55.9121 81.7662C56.2798 81.8514 56.5636 81.6628 56.6855 81.2564C56.7396 80.9017 56.6397 80.6251 56.409 80.4612Z" fill="#7F3833"/>
<path fill-rule="evenodd" clip-rule="evenodd" d="M55.3688 80.8237C55.3688 80.4888 55.6146 80.2188 55.9052 80.2188C55.9272 80.2188 55.9511 80.2188 55.9662 80.2287C55.9155 80.1666 55.852 80.1196 55.7814 80.0917C55.5366 80.0379 55.3537 80.1605 55.2757 80.4272C55.2454 80.6081 55.2844 80.7555 55.3688 80.8677V80.8237Z" fill="#DAA38C"/>
<path fill-rule="evenodd" clip-rule="evenodd" d="M64.2535 80.4612C64.2603 80.5124 64.2603 80.5663 64.2603 80.618C64.2613 80.7427 64.2362 80.866 64.1872 80.9778C64.1381 81.0896 64.0665 81.1868 63.9779 81.2617C63.8894 81.3365 63.7866 81.3868 63.6776 81.4085C63.5687 81.4302 63.4567 81.4228 63.3508 81.3868C63.4269 81.5583 63.5635 81.6881 63.7566 81.7662C64.1243 81.8514 64.4061 81.6628 64.53 81.2564C64.5841 80.9017 64.4837 80.6251 64.2535 80.4612Z" fill="#7F3833"/>
<path fill-rule="evenodd" clip-rule="evenodd" d="M63.2114 80.8237C63.2114 80.4888 63.4572 80.2188 63.7478 80.2188C63.7717 80.2188 63.7937 80.2188 63.8088 80.2287C63.759 80.1669 63.6965 80.1199 63.6269 80.0917C63.3811 80.0379 63.1963 80.1605 63.1202 80.4272C63.0905 80.6081 63.127 80.7555 63.2119 80.8677L63.2114 80.8237Z" fill="#DAA38C"/>
<path fill-rule="evenodd" clip-rule="evenodd" d="M64.2994 73.8358C64.3244 73.9712 64.3178 74.1115 64.2801 74.2431C64.2425 74.3747 64.1752 74.493 64.0848 74.5864C63.9944 74.6797 63.8841 74.745 63.7645 74.7758C63.645 74.8066 63.5205 74.8018 63.4031 74.7619C63.4811 74.9335 63.6118 75.0632 63.8088 75.1408C64.1785 75.2266 64.4603 75.0379 64.5754 74.6316C64.6295 74.2763 64.5296 73.9997 64.2994 73.8358Z" fill="#7F3833"/>
<path fill-rule="evenodd" clip-rule="evenodd" d="M63.2655 74.201C63.2655 73.8628 63.5025 73.5961 63.802 73.5961C63.8239 73.5961 63.839 73.5961 63.8629 73.6032C63.8115 73.5391 63.7456 73.4918 63.6722 73.4663C63.4333 73.4146 63.2504 73.5351 63.1724 73.8018C63.1422 73.9827 63.1812 74.1295 63.2655 74.2423V74.201Z" fill="#DAA38C"/>
<path fill-rule="evenodd" clip-rule="evenodd" d="M78.3079 79.2272C78.3167 79.2789 78.3231 79.3301 78.3231 79.3812C78.3231 79.8316 78.0022 80.1846 77.6116 80.1846C77.5438 80.1846 77.4745 80.1769 77.4136 80.1505C77.4896 80.3238 77.6203 80.4612 77.8193 80.5399C78.187 80.6185 78.4689 80.4272 78.584 80.0208C78.6386 79.6754 78.5386 79.3911 78.3079 79.2272Z" fill="#7F3833"/>
<path fill-rule="evenodd" clip-rule="evenodd" d="M77.2678 79.5896C77.2678 79.2613 77.5117 78.9842 77.8106 78.9842C77.8345 78.9842 77.8496 78.9842 77.8715 78.9919C77.8197 78.9304 77.7537 78.8864 77.6809 78.8648C77.4439 78.8038 77.259 78.9237 77.1835 79.1931C77.1532 79.3746 77.1835 79.5214 77.2742 79.6342C77.2746 79.6138 77.2678 79.6067 77.2678 79.5896Z" fill="#DAA38C"/>
<path fill-rule="evenodd" clip-rule="evenodd" d="M70.9111 74.5529C70.9179 74.6046 70.9262 74.658 70.9262 74.7096C70.9262 75.1573 70.6024 75.5131 70.2118 75.5131C70.144 75.5131 70.0748 75.5026 70.0138 75.479C70.0835 75.6506 70.2206 75.7897 70.4107 75.8656C70.7867 75.9442 71.0623 75.7556 71.1861 75.3492C71.2388 75.0038 71.1388 74.7173 70.9111 74.5529Z" fill="#7F3833"/>
<path fill-rule="evenodd" clip-rule="evenodd" d="M69.868 74.9153C69.868 74.5798 70.1138 74.3104 70.4108 74.3104C70.4259 74.3104 70.4498 74.3104 70.4717 74.3203C70.4184 74.2587 70.3531 74.2118 70.2811 74.1834C70.0353 74.1289 69.8592 74.2521 69.7754 74.5183C69.7534 74.6997 69.7841 74.8466 69.8743 74.9593C69.868 74.9422 69.868 74.9329 69.868 74.9153Z" fill="#DAA38C"/>
<path fill-rule="evenodd" clip-rule="evenodd" d="M79.2354 66.9949C79.2442 67.0488 79.2506 67.0999 79.2506 67.1516C79.2506 67.5921 78.9287 67.9545 78.5381 67.9545C78.4683 67.9545 78.401 67.9446 78.3381 67.9204C78.4079 68.0914 78.5469 68.2212 78.738 68.2993C79.1135 68.3851 79.3895 68.1959 79.5105 67.7802C79.5651 67.4359 79.4651 67.1593 79.2354 66.9949Z" fill="#7F3833"/>
<path fill-rule="evenodd" clip-rule="evenodd" d="M78.1939 67.3594C78.1939 67.0218 78.4387 66.7545 78.7386 66.7545H78.7996C78.7431 66.6989 78.6782 66.6551 78.6079 66.6253C78.3719 66.5736 78.1871 66.6935 78.1022 66.9602C78.0803 67.134 78.111 67.2885 78.2022 67.3935C78.2022 67.3842 78.1939 67.3765 78.1939 67.3594Z" fill="#DAA38C"/>
<path fill-rule="evenodd" clip-rule="evenodd" d="M24.6826 54.7817C24.8216 54.5936 24.8216 54.4468 25.1888 54.3071C26.1617 54.1262 27.6486 54.956 27.6486 54.956C27.67 55.2915 27.4096 55.534 27.4096 55.534C26.346 55.1441 25.6404 54.8675 24.6826 54.7817ZM25.458 53.6164C25.458 53.6164 25.6248 53.1243 26.27 53.1072C26.6825 53.0973 28.1699 53.5895 28.2523 53.7462C28.3455 53.9882 27.9919 54.3242 27.9919 54.3242C27.7008 54.0916 26.5372 53.6511 25.458 53.6164Z" fill="white"/>
<path fill-rule="evenodd" clip-rule="evenodd" d="M67.7233 53.0737C68.0602 52.9681 68.0061 52.3121 68.3816 52.4682C68.5747 52.8037 68.6357 53.2106 68.6815 53.6165C68.3358 53.5213 68.0451 53.2717 67.7233 53.0737Z" fill="#8FA6C6"/>
<path fill-rule="evenodd" clip-rule="evenodd" d="M26.1461 52.3901C26.3305 51.5872 28.6127 52.5199 28.9121 52.6398C28.9575 52.7965 28.7668 53.0462 28.6059 53.1589C27.219 52.598 26.1461 52.3901 26.1461 52.3901ZM26.6133 51.4058C26.6133 51.4058 26.7674 50.4555 29.3101 51.6285C29.4335 51.9221 29.1428 52.0959 29.1428 52.0959C28.0763 51.5773 27.2278 51.3887 26.6133 51.4058ZM27.0429 50.4632C27.0429 50.4632 27.0493 50.1107 27.5101 50.0227C27.9617 49.9369 29.5403 50.5149 29.7007 50.5589C29.7309 50.7497 29.6549 50.99 29.5315 51.1121C28.3825 50.5144 27.0429 50.4632 27.0429 50.4632ZM27.5794 49.4448C27.5794 49.4448 27.7247 49.1071 28.0699 49.0554C28.5908 48.9966 30.0069 49.4717 30.1064 49.6867L29.9065 50.0392C29.3247 49.7285 28.1309 49.4717 27.5794 49.4448Z" fill="white"/>
<path fill-rule="evenodd" clip-rule="evenodd" d="M64.5686 49.1775C64.4598 48.7541 64.4598 48.2619 64.2687 47.8726C64.4993 47.5448 64.9724 47.1379 65.1509 46.8613C65.1509 46.8613 64.8061 46.9399 64.6754 46.8101C64.0239 46.8002 63.7322 47.569 63.4114 48.0634C63.5484 48.279 63.4333 48.8839 63.4114 49.0555C62.8749 49.0654 62.1932 49.0819 61.7567 48.6414C60.8443 48.208 59.6729 48.1222 59.1204 47.0521C58.0119 45.5756 55.7365 44.2195 55.184 43.9082C56.1184 44.0622 56.884 43.3281 57.6745 42.8876C58.1782 42.3712 58.3782 42.0671 58.7995 41.4897C58.7995 41.4897 65.363 44.5824 65.2572 44.5137C65.9477 45.0746 65.9774 45.6795 65.8989 46.076C65.7321 46.8107 66.3598 47.3469 66.1296 48.064C66.2296 48.5633 65.8687 49.056 65.8687 49.056C65.4566 49.2534 65.0114 49.2534 64.5686 49.1775ZM54.8173 47.2165C54.5934 47.0351 54.6715 46.7145 54.5183 46.4719C54.3964 46.1777 54.1214 46.0507 54.1355 45.7131L54.2574 45.5316C54.2574 45.5316 55.4756 46.4301 55.6756 46.7139C56.1032 47.3359 57.5204 48.0359 57.5204 48.0359C56.6021 48.0711 55.6965 47.8627 54.8173 47.2165ZM53.897 43.3726C53.7751 43.2868 53.8819 43.157 53.897 43.0613C54.2569 43.2868 54.7865 43.4848 55.124 43.8818C54.7345 43.6574 54.3226 43.4864 53.897 43.3726ZM44.806 37.9125L44.7665 37.1096C45.3941 37.3521 45.9696 37.7585 46.369 38.4657C46.1443 38.4809 45.9193 38.4424 45.7087 38.3529C45.4117 38.216 45.1425 37.9565 44.806 37.9125ZM47.533 37.8877C47.6852 37.7238 47.9607 37.775 48.1694 37.7238C48.582 37.5501 49.0126 37.0337 49.4183 37.5083C49.3096 37.9048 48.9975 38.1374 48.643 38.2232C48.3679 38.3359 48.1002 38.414 47.7705 38.3969C47.77 38.3969 47.5394 38.0252 47.533 37.8877ZM41.1451 35.4516C41.1666 35.4175 41.2753 34.8907 41.9483 35.0039C42.8212 35.1409 42.9666 34.536 44.1633 34.7004L44.5149 34.8379C44.5149 34.8379 44.3457 35.0287 44.2394 35.2025C43.7488 36.0642 43.6337 37.0342 43.9331 38.0868C42.8973 37.4912 41.5733 36.7741 41.1451 35.4516ZM44.9123 35.9097C44.9211 35.66 45.0967 35.4593 45.1123 35.2096C45.6482 35.2542 46.2607 35.7975 46.4368 36.4194V36.7989C45.8633 36.6784 45.3576 36.299 44.9123 35.9097ZM47.1727 36.0565L48.3455 36.5657C48.3674 36.6614 48.3216 36.6614 48.2606 36.7026C47.9758 36.9721 47.633 36.9034 47.3575 36.7026C47.2941 36.4975 47.2336 36.2649 47.1727 36.0565ZM49.7758 25.4403C49.6929 25.1049 49.5481 24.5858 49.53 24.6033C49.0872 24.6204 49.5091 24.836 48.8185 25.519L48.206 25.7686C48.0539 25.8396 47.8091 25.9666 47.5633 26.0722C47.6701 26.219 47.8603 26.3906 48.1519 26.4417C48.1519 26.4417 47.5701 26.6254 47.1571 26.2531C47.1483 26.2976 47.1483 26.3389 47.1483 26.373C47.1483 26.6496 47.5847 27.1346 47.4477 27.5993C47.4545 27.668 47.4477 27.7461 47.4326 27.8319C47.3726 28.136 47.003 28.0744 46.9118 28.0574C46.8206 28.0403 46.5665 28.4027 46.4143 28.4198C46.2534 28.4368 45.954 28.1624 45.8994 28.1261C45.8477 28.092 45.4931 28.0673 45.3937 27.9375C45.2415 27.7566 45.3025 27.2303 45.5936 27.0296C45.5936 27.0296 45.4785 27.5141 45.6087 27.6345C45.7389 27.7571 45.8321 27.7225 45.9238 27.7225C46.0154 27.7225 46.2295 28.0161 46.3841 28.0161C46.5445 28.0161 46.7508 27.7054 46.8357 27.7054C46.9118 27.7054 46.9425 27.7395 47.0722 27.7054C47.2029 27.6691 47.1873 27.177 47.1332 27.1082C47.1483 27.0912 46.92 26.9438 46.92 26.9438L46.7269 27.1764L46.566 27.2814C46.566 27.2814 46.6962 26.0964 46.5509 25.6922C46.4143 25.2929 46.6596 25.2929 46.644 25.0334C46.6201 24.7766 46.8874 25.2248 47.0264 25.156C47.0327 25.1461 47.0415 25.1461 47.0478 25.1461C47.3721 24.5951 48.0836 24.5753 48.5957 24.2745C48.6415 24.2404 48.9024 24.2305 48.9473 24.3432C49.0472 24.5511 49.4388 24.3432 49.4388 24.3432C49.4847 24.1007 49.5086 23.8511 49.393 23.5843L49.3389 23.3765C49.2018 23.5162 49.0711 23.558 48.8873 23.6531C48.7025 23.7488 47.1785 24.4835 46.2378 24.7161C45.5624 24.5423 43.2957 23.3083 43.2957 23.3083L43.2416 23.7488C43.0743 23.9302 43.0963 24.1799 43.1265 24.4219C43.1655 24.4219 43.3957 24.4736 43.4718 24.5176C43.4718 24.3784 43.5869 24.1799 43.7239 24.3097C44.3076 24.7161 45.1567 24.5599 45.6087 25.2259C45.5936 25.6152 45.5326 26.0458 45.3722 26.2102C44.9509 26.6342 44.3301 26.4428 44.3301 26.4428C44.9967 26.2712 45.0118 25.9259 45.0421 25.9259C44.7531 25.8474 44.4652 25.7642 44.1784 25.6762C43.4967 25.5096 43.3816 24.7777 43.3816 24.7777C43.2665 24.7067 43.1665 24.6891 43.106 24.655C43.106 24.7238 43.1431 24.8976 43.1212 24.9657C42.8978 25.1054 42.9368 25.5805 42.9368 25.5805L43.1972 26.4423C43.6727 27.1693 44.3154 27.221 44.4218 27.5998C44.53 27.9721 44.4305 28.6282 44.2545 28.7239C43.9702 28.4544 43.8878 27.3947 43.1514 27.3749C43.3274 27.5416 43.3577 27.9969 43.5727 28.1019C43.6942 28.4742 43.679 28.9906 43.818 29.3871C43.979 29.7522 44.6212 30.2345 45.0728 30.7091C45.1815 30.8829 45.1728 31.1254 45.479 31.2623C46.1393 31.5736 46.3753 31.2722 46.3753 31.2722C46.6665 31.2722 47.1878 31.6934 47.4394 31.1936C47.6935 30.6915 47.8759 30.5375 47.9758 30.312C48.2996 29.9568 48.7273 29.7511 48.8814 29.3618C49.0331 29.0951 48.9785 28.7129 49.0331 28.4456C49.0789 28.0051 49.1482 27.6499 49.2482 27.2292L48.9731 27.469C48.8273 27.9958 48.4606 28.169 48.4455 28.1619C48.3523 28.2477 48.2826 28.3263 48.3304 28.4291C48.4455 28.7057 48.1455 29.3007 47.9695 29.3618C48.0846 29.1979 48.0456 28.6881 47.8764 28.4291C47.8612 28.3263 47.9544 28.0667 48.146 27.9199C48.2158 27.8688 48.2679 27.7731 48.3157 27.6774C48.3679 27.4354 48.3767 27.1852 48.6215 27.0631C49.195 26.6419 49.058 26.7618 49.5256 26.2696C49.5091 26.2014 49.7997 25.5085 49.7758 25.4403ZM46.369 30.4083C45.9998 30.1487 45.5721 30.3467 45.4029 29.7863C45.7999 29.8991 45.9696 29.8622 46.3514 29.8892C47.1112 29.9502 47.4628 29.458 47.4628 29.458C47.7788 30.2686 46.7513 30.036 46.369 30.4083ZM47.4721 29.1985C47.455 29.1985 47.4331 29.1985 47.418 29.2056C47.3034 29.2326 47.0122 29.3183 46.6518 29.3183C46.2915 29.3282 46.3846 29.3354 46.1003 29.3354C45.8179 29.3354 45.2581 29.2403 45.1971 29.2155C45.1362 29.1814 45.0362 29.1886 44.9587 29.1985L45.1191 28.9658C45.1191 28.9658 45.3493 28.9735 45.6034 29.0076C45.855 29.0522 46.1003 28.9565 46.1003 28.9565L46.3373 29.0764L46.5675 28.9565C46.5675 28.9565 46.7586 29.0351 46.8976 29.0351C47.0429 29.0351 47.18 28.9834 47.3945 28.9911H47.4097L47.4248 28.7486C47.5945 28.8883 47.6789 29.3117 47.6789 29.3117C47.6033 29.2917 47.5327 29.253 47.4721 29.1985Z" fill="#9EA0A0"/>
<path fill-rule="evenodd" clip-rule="evenodd" d="M45.2425 25.4326C45.2727 25.3375 45.2035 25.2935 45.1513 25.2247C44.9362 25.3446 44.8211 25.4667 44.5368 25.3105C44.2545 25.1466 44.4305 24.8013 44.1243 24.8871C44.1243 24.9822 44.1633 25.2346 44.2091 25.2687C44.2608 25.3199 44.8909 25.5184 45.1732 25.5283L45.2425 25.4326Z" fill="white"/>
<path fill-rule="evenodd" clip-rule="evenodd" d="M28.3064 29.6736C28.1699 29.4069 28.3825 29.1473 28.6278 29.3871C28.797 29.5949 29.0184 29.6807 29.2335 29.4998C31.2026 27.5487 31.7844 28.714 31.7844 28.714C31.7215 29.0247 31.4933 29.2842 31.2695 29.3871C31.0481 29.4921 29.033 30.5034 28.5205 30.009C28.5215 30.009 28.4454 29.9331 28.3064 29.6736ZM28.3303 28.5155C28.4605 28.0678 28.7819 27.6955 28.934 27.2644C29.1945 26.9091 29.4183 26.4417 29.5943 26.0452C29.5943 26.0452 29.6158 25.7098 29.3188 25.6146C28.7043 25.7274 28.522 26.4615 28.2221 26.9196C27.9158 27.3848 27.4033 27.9798 27.7315 28.6557C27.4559 28.6287 26.9517 28.1267 26.9517 28.1267C27.0668 27.497 27.5554 26.5302 27.8158 26.0452C27.9397 25.6999 28.1221 25.1219 27.9158 24.8876C27.8548 24.7771 27.5252 24.7062 27.2799 25.3721C27.2038 25.9083 26.5679 27.1176 26.2704 27.7395C26.2704 27.7395 25.8491 27.7054 25.7189 27.4288C25.91 26.6672 26.6376 24.4494 26.3855 24.3537C26.1314 24.2657 25.7101 24.1557 25.6038 25.3039C25.6189 25.2253 25.2278 26.9366 25.0435 27.0472C24.8523 27.1599 24.3549 27.2891 24.2769 26.753C24.3856 25.8912 24.4461 25.0884 24.5158 24.258C24.4461 23.9297 24.4071 23.592 24.5529 23.2984C25.1044 23.3424 25.5584 23.5403 26.0861 23.7048C29.371 24.7601 31.0339 26.114 31.0339 26.114C30.4892 27.0125 29.2735 28.3615 28.8672 28.9218C28.6975 28.7849 28.4605 28.7409 28.3303 28.5155ZM30.0913 25.0334C30.1371 24.7837 30.2283 24.6121 30.3668 24.4312C30.3668 24.4312 31.1788 24.9476 31.4938 25.2759C31.4938 25.2759 31.4153 25.6212 31.2183 25.839C30.8428 25.3644 30.1912 25.0779 30.0913 25.0334ZM30.2912 23.7999C30.4585 23.6971 30.6277 23.2049 30.873 23.5332C31.2183 23.9643 31.4158 24.412 31.5699 24.9311C31.3094 24.7326 30.7881 23.9737 30.2912 23.7999ZM28.0762 24.0837C28.1157 23.9297 28.2001 23.5403 28.3674 23.4029C28.3674 23.4029 29.7089 23.9737 29.8913 24.0837L29.5938 24.7595C29.4554 24.7155 28.8736 24.2651 28.0762 24.0837ZM26.3523 23.3688L26.4611 22.7985C26.8976 22.9354 27.234 23.0482 27.7095 23.2049C27.6705 23.3864 27.6398 23.6525 27.6183 23.878C27.6183 23.878 26.8064 23.4375 26.3523 23.3688ZM28.6283 23.0746C28.6283 23.0746 29.6007 22.5725 29.8309 22.7369C30.022 22.9184 30.2824 22.9866 30.4063 23.1681C30.2824 23.256 30.0522 23.41 29.8913 23.5843C29.5095 23.2978 29.0428 23.2808 28.6283 23.0746ZM24.5851 22.9013C24.546 22.6247 24.5158 22.358 24.6221 22.1155C24.6221 22.1155 25.5579 22.4878 25.8335 22.5565C25.97 22.7375 25.8335 23.2296 25.8335 23.2296C25.4643 22.9794 24.7762 22.9866 24.5851 22.9013ZM28.0762 22.9525C28.0762 22.9525 27.6334 22.7886 27.0126 22.556C27.9397 22.4873 28.5673 22.2277 28.5673 22.2277C28.7585 22.1589 29.2642 22.4433 29.234 22.5043C28.8819 22.5659 28.0762 22.9525 28.0762 22.9525ZM24.9367 21.8653C25.6487 21.9071 27.1731 21.9439 28.046 22.115C27.4335 22.2887 26.1851 22.2788 26.1851 22.2788L24.9367 21.8653Z" fill="#8FA6C6"/>
<path fill-rule="evenodd" clip-rule="evenodd" d="M44.7753 28.4637C44.6519 28.7233 44.6519 29.2402 44.7602 29.4992C44.4456 29.2672 44.3388 28.7481 44.7753 28.4637ZM46.0457 26.1915C46.0696 25.856 46.0086 25.856 46.13 25.5277C45.9301 25.398 45.8999 24.8277 45.6092 24.9058C45.6092 24.9058 45.7848 25.398 45.9632 25.5965C45.794 25.768 45.8091 26.3994 45.7701 26.8134C45.6092 26.8574 45.6248 27.0043 45.6248 27.0043C45.7701 26.8404 46.07 27.271 46.07 27.271C46.07 27.271 46.0305 26.5198 46.0457 26.1915ZM32.2365 27.6169L51.0247 35.7969L50.1971 36.5046L31.6069 27.8594L32.2365 27.6169ZM47.3731 25.4326C47.3331 25.3375 47.4092 25.2935 47.455 25.2247C47.6701 25.3446 47.7856 25.4667 48.0695 25.3105C48.3523 25.1466 48.1846 24.8013 48.482 24.8871C48.482 24.9822 48.4459 25.2346 48.4069 25.2687C48.3528 25.3199 47.7164 25.5184 47.4336 25.5283L47.3731 25.4326Z" fill="white"/>
<path fill-rule="evenodd" clip-rule="evenodd" d="M31.3158 21.1482C31.822 20.9744 33.1333 20.7248 33.7609 21.6063C34.0667 21.5112 34.6338 20.5169 35.3848 20.2672C36.1339 20.0247 37.8817 19.2141 40.103 21.1488C40.103 21.1488 40.5004 20.8282 41.1671 20.8991C41.0759 24.484 42.2702 25.96 42.2702 25.96C42.2702 25.96 41.7883 25.7692 41.6971 25.3111C41.6035 24.8459 41.0978 24.5692 41.0978 24.2481C41.0978 23.9297 40.9671 22.953 41.0305 22.6C41.0915 22.2447 40.9764 22.1326 40.6916 22.1667C40.4161 22.2007 40.1639 22.8771 39.9123 22.7716C39.667 22.6687 38.9765 21.6404 38.54 21.9241C38.5098 22.0638 38.855 23.0823 38.8092 23.878C39.6363 24.3949 40.9149 26.2262 40.7545 27.739C41.0368 28.5149 42.8519 28.7233 43.9482 30.8389C44.1633 31.2623 45.0728 32.0047 45.4117 32.1097C45.755 32.2131 46.0998 32.3594 46.445 32.8862C46.7102 32.8288 46.9615 32.7082 47.1821 32.5326C47.4026 32.357 47.5875 32.1303 47.7242 31.8678C48.0387 31.2628 49.2242 30.9791 49.4481 30.0976C49.6607 29.2161 51.3387 28.4473 52.16 28.3791C52.0361 27.6004 52.5418 26.7898 53.224 26.4351C53.9126 26.0799 54.1062 25.4508 54.1062 25.4508C54.1062 25.4508 53.5844 24.9927 53.1699 25.1302C52.7573 25.2698 51.6089 24.7166 51.5611 24.484C51.5611 24.484 51.2934 24.7067 51.3153 25.1643C51.3543 25.6223 50.8028 26.6947 50.421 26.7288C50.421 26.7288 50.4361 26.5649 50.657 26.2196C50.8789 25.8742 50.697 25.5877 50.7267 25.3111C50.757 25.0268 51.3631 23.9302 51.4241 22.6176C51.8605 22.7303 52.4184 22.98 53.6844 24.3537C54.7246 24.3955 57.9817 25.382 58.6 27.5317C59.3823 27.6345 62.852 29.26 63.3509 31.4003C63.8546 33.5527 62.6691 34.718 62.9753 35.5995C62.9753 35.5995 63.6327 34.7867 63.9175 34.7867C64.0394 35.4186 63.7868 36.5157 63.4489 36.8704C63.106 37.2234 62.4448 37.3361 62.4448 37.3361C62.4448 37.3361 61.3817 32.6717 56.9454 33.4136C57.3521 32.9214 57.6969 31.8683 58.5093 31.7215C59.3208 31.584 60.224 31.937 60.7609 31.2975C60.478 31.2975 59.8724 31.1259 59.6578 30.9082C59.6578 30.9082 60.0416 30.2098 59.6968 29.6054C59.412 30.0976 58.4786 31.2628 57.4453 31.5131C56.4177 31.7556 54.9172 31.5472 54.5422 30.7707C54.1662 29.9925 53.6298 30.0635 53.6298 30.0635C53.6298 30.0635 54.1355 31.3657 53.8824 32.0762C53.6298 32.7839 52.6642 35.1073 51.3851 35.1073L37.1004 28.7921C37.1004 28.7921 35.9886 28.0233 36.1734 26.8234C36.4099 26.9262 37.0161 27.2814 37.8734 26.6837C37.8734 26.6837 36.1036 25.9077 35.3546 24.7419C34.6031 23.5838 34.6641 22.7369 33.6307 22.8057C33.6307 22.8057 34.1671 23.4029 34.1671 23.8263C34.1671 24.2475 34.2432 25.7334 34.0282 26.0447C33.8219 26.3653 33.6005 26.9262 32.8495 27.1077C33.1938 26.6837 33.8823 22.4532 31.3158 21.1482ZM41.0671 39.2273C40.6911 38.4756 37.6432 36.453 36.7942 36.1934C36.6552 36.5927 36.2797 37.0408 36.2797 37.0408C36.2797 37.0408 35.9061 35.66 35.9432 35.0897C35.989 34.5266 35.1917 33.6819 34.3193 33.4911C33.4464 33.3096 32.3584 33.87 32.198 34.1983C32.0307 34.5266 30.574 35.2877 30.2766 35.66C29.9854 36.0295 29.4861 37.0139 29.5256 37.533C29.5709 38.0521 28.2923 42.5939 28.3678 43.4677C28.3678 43.4677 28.8194 43.1301 29.0281 42.611C29.2344 42.0946 29.7772 40.5911 30.4438 40.6862C30.4438 40.6862 29.9464 41.2983 29.9464 41.9989C29.9464 42.7066 29.6948 44.8662 29.2344 45.1945C30.1917 45.2456 32.613 45.757 32.1521 48.4846C32.1521 48.4846 32.5735 49.3321 33.0709 48.2009C33.5702 47.0768 33.9438 46.5605 33.9438 46.5605C33.9438 46.5605 36.0671 44.9613 36.4884 43.311C36.901 41.6706 36.4343 41.438 36.4343 41.438C36.4343 41.438 35.3229 43.1911 34.4041 43.3627C33.7161 43.4925 33.7765 44.0215 33.7765 44.0215C33.7765 44.0215 33.3162 43.691 33.8609 42.9832C34.4037 42.2832 35.4853 41.6266 35.9061 40.728C36.3187 39.8394 36.6552 38.7593 36.6552 38.7593C36.6552 38.7593 37.1156 39.7437 37.1916 40.6351C37.2765 41.5337 37.6978 42.2832 38.2796 43.0784C38.8614 43.8813 41.1978 45.5761 42.1946 45.5761C43.1977 45.5761 43.2821 45.057 43.2821 45.057C43.2821 45.057 42.4847 40.4003 41.0671 39.2273ZM34.1974 39.1223C33.6527 39.5457 32.4037 40.2535 31.7376 39.9252C31.0734 39.5969 30.8193 37.2487 30.8193 37.2487V37.1019C30.8193 36.9622 31.0256 36.3501 31.0256 36.3501C31.0256 36.3501 31.3167 37.6721 32.0312 38.1814C32.7344 38.6977 33.6161 38.4657 33.9438 38.1814C34.2827 37.9048 35.2771 37.6721 35.4853 37.9465C35.1917 38.6983 34.7333 38.6983 34.1974 39.1223Z" fill="#9EA0A0"/>
<path fill-rule="evenodd" clip-rule="evenodd" d="M21.4976 63.2637C21.4586 63.4034 21.4284 63.5403 21.4045 63.68C21.2289 64.7325 20.8768 65.8736 21.5825 66.8579C22.2857 67.8423 24.2553 66.2189 25.2346 65.5183C25.9314 65.019 26.9887 64.1199 27.9704 63.2631L21.4976 63.2637Z" fill="black"/>
<path fill-rule="evenodd" clip-rule="evenodd" d="M22.7524 61.78C22.7914 62.5658 22.0033 65.0366 22.0706 65.6827C22.1335 66.3388 23.0064 66.0798 23.0064 66.0798L24.0705 65.4947C24.0705 65.4947 23.0064 65.8818 22.9455 65.2351C22.8826 64.579 23.5039 62.755 23.6341 61.9097L22.7524 61.78Z" fill="#8FA6C6"/>
<path fill-rule="evenodd" clip-rule="evenodd" d="M24.943 62.0566C24.943 62.0566 24.7304 62.6862 24.6216 63.1531C24.5216 63.5749 25.0512 63.6629 25.5945 63.3076C25.9246 63.0992 28.697 61.0794 28.697 61.0794L28.0694 60.5014C28.0694 60.5014 26.1397 62.2622 24.943 62.0566Z" fill="#9EA0A0"/>
<path fill-rule="evenodd" clip-rule="evenodd" d="M21.819 59.8091C22.0711 59.9488 22.3164 60.0956 22.5705 60.0956C23.9403 60.3013 25.2585 60.441 26.6288 60.0956C26.8219 60.0956 27.0043 59.9488 27.1955 59.88C27.1345 59.7404 27.3193 59.6716 27.3193 59.5935C27.571 59.3169 27.8167 59.1014 28.0708 58.8253C28.262 58.6779 28.1927 58.1176 28.0708 57.831C27.511 56.7098 26.2557 56.217 25.0678 56.2858V56.5701C25.4298 56.8346 25.7661 57.1415 26.0709 57.4857C26.3859 57.9097 26.3859 58.541 26.1928 58.8253C25.6344 59.5935 24.6313 59.3175 23.7589 59.3175C23.32 59.8806 22.5709 59.4572 22.0043 59.6727L21.819 59.8091Z" fill="#8FA6C6"/>
<path fill-rule="evenodd" clip-rule="evenodd" d="M38.5941 32.0388L43.1211 34.0955C43.1211 34.0955 39.0608 33.87 38.5941 32.0388ZM37.5973 32.636C37.5973 32.636 37.1911 31.2793 36.288 30.8729C35.3848 30.4764 35.2239 30.4149 35.2239 30.4149C35.2239 30.4149 36.3187 31.9359 37.5973 32.636Z" fill="#9EA0A0"/>
<path fill-rule="evenodd" clip-rule="evenodd" d="M56.724 38.596L68.069 43.6322C68.4119 43.8131 70.5961 44.6165 70.9111 44.6506L69.4472 45.6108L56.3173 39.4775C56.3173 39.477 56.509 38.838 56.724 38.596ZM67.0966 50.593C66.7748 50.8427 66.4061 51.5526 66.369 51.6285C66.3149 51.7335 66.7509 51.7583 66.7509 51.7583C66.7509 51.7583 67.0966 51.1022 67.3093 50.9378C67.3088 50.9378 67.1786 50.5243 67.0966 50.593ZM66.7358 50.4044C66.7358 50.4044 66.6119 49.9881 66.529 50.0568C66.2062 50.3087 65.8394 51.0165 65.8004 51.0951C65.7482 51.1979 66.191 51.1979 66.191 51.1979C66.191 51.1979 66.529 50.5688 66.7358 50.4044ZM66.1691 49.8506C66.1691 49.8506 66.0384 49.4343 65.954 49.4954C65.6332 49.745 65.2664 50.4555 65.2274 50.5408C65.1733 50.6365 65.64 50.6266 65.64 50.6266C65.64 50.6266 65.9536 50.0151 66.1691 49.8506ZM40.0269 21.0454C39.2364 20.2425 36.4031 18.3667 33.761 21.6063C34.2364 21.658 35.5673 20.9502 36.1968 20.5779C36.8157 20.1979 38.3182 19.9114 40.0269 21.0454ZM38.1119 23.6261C39.2364 23.7653 41.3056 25.6311 40.6911 28.0403C40.6087 28.378 41.0671 28.7481 41.0671 28.7481C41.0671 28.7481 40.3639 28.6106 40.3639 27.9034C40.3639 27.2028 40.2791 25.1808 38.1119 23.6261ZM48.9424 31.2359C49.4481 30.097 49.7451 28.2141 52.5179 28.2999C52.1902 28.4544 51.9445 28.7481 51.3149 28.9829C50.6965 29.2155 50.0299 29.5949 49.6929 30.2515C49.4398 30.7608 49.2789 31.1501 48.9424 31.2359ZM41.1452 35.4516C41.1452 35.4516 41.13 37.136 43.9331 38.0862C43.9331 38.0862 41.2822 36.8764 41.4885 35.0452C41.4885 35.0457 41.3061 35.148 41.1452 35.4516ZM32.3584 33.914C31.5704 34.6217 31.6547 35.7969 31.861 36.6856C32.0673 37.5842 33.6156 38.0076 33.6156 38.0076C33.6156 38.0076 32.6949 37.3955 32.5277 36.4112C32.3584 35.4169 32.2736 34.156 33.1943 33.5857C33.1938 33.5863 32.8032 33.5247 32.3584 33.914ZM30.2756 37.8195C29.57 39.6485 30.697 40.2628 30.697 41.5755C30.697 42.8881 29.985 44.8662 29.985 44.8662C30.697 44.4422 31.3158 43.0789 31.1944 41.7223C31.073 40.3585 30.1523 38.3359 30.2756 37.8195ZM39.3603 40.2117C40.5302 41.1102 40.8608 44.4009 42.3999 43.9258C42.3999 43.9258 41.6484 43.4584 41.4051 42.7066C41.1515 41.9549 40.4853 39.7882 39.3603 40.2117ZM56.8786 43.6734C59.2511 43.8741 60.4781 44.5032 61.6636 45.9039C62.8598 47.3117 65.0811 46.6457 65.005 45.3748C64.3604 45.8329 63.2812 46.2734 61.8942 45.0735C60.5 43.8648 58.4245 42.5598 56.8786 43.6734Z" fill="white"/>
<path fill-rule="evenodd" clip-rule="evenodd" d="M50.5429 20.4993C50.4581 19.2142 50.1669 18.3568 49.8392 17.5903C49.5013 16.8732 48.979 16.2584 48.3611 15.742C47.7164 16.9073 47.2882 22.0297 47.2882 21.9951C47.2882 22.0121 47.1185 17.4946 47.6857 15.0931C47.6857 15.0931 47.2882 15.7051 47.1273 16.1627C47.1273 16.1627 46.2851 16.0868 45.7706 16.2072C45.7794 16.2683 45.7945 16.3271 45.7945 16.3881C45.7945 16.491 45.8009 16.596 45.8009 16.6994C45.8789 19.6717 45.5341 22.0809 45.5341 22.0809C45.4732 18.6335 45.2498 15.1618 45.2498 15.1618C43.8795 16.0604 42.5467 18.2298 42.0405 20.9156C41.528 23.6014 42.5096 25.475 42.5096 25.475C42.2858 24.1381 42.2858 22.9701 42.4248 21.9687C43.0368 22.4609 44.707 23.7147 46.27 24.2481C47.3946 23.5844 49.5252 22.4438 49.8851 22.1843C49.9548 22.143 50.0157 22.1155 50.067 22.0985V22.1595C50.067 22.1595 49.9699 22.8062 49.7241 23.2126C49.7241 23.2126 49.9918 24.06 50.0157 25.365C50.0153 25.3644 50.7268 23.1433 50.5429 20.4993ZM44.8753 17.1058C44.8696 17.0926 44.8614 17.081 44.8514 17.0717H44.8602C44.8665 17.0788 44.8665 17.0887 44.8753 17.1058Z" fill="#8FA6C6"/>
<path fill-rule="evenodd" clip-rule="evenodd" d="M42.5086 25.4744C42.5086 25.4744 42.5696 23.6525 42.8451 23.2049L42.3779 21.5205C42.3784 21.5205 42.0244 24.4829 42.5086 25.4744Z" fill="#8FA6C6"/>
<path fill-rule="evenodd" clip-rule="evenodd" d="M46.2694 24.2475C46.2694 24.2475 45.8783 23.5497 45.2273 23.2049C44.8123 22.9871 42.5998 22.1425 42.5998 22.1425C42.5998 22.1425 44.7216 23.8609 46.2694 24.2475ZM14.7864 85.2307V87.7356L15.2921 88.0369H13.2859L13.7828 87.7356V85.2307H13.0342L12.389 85.6278V84.9447H16.1889V85.6278L15.5374 85.2307H14.7864ZM25.197 86.5087L26.2762 87.735L26.7736 88.0364H25.3799L24.2466 86.6214H23.8403V87.735L24.3397 88.0364H22.331L22.8304 87.735V85.2549L22.331 84.9442H24.231C25.1366 84.9442 26.1611 85.2038 26.1611 85.7641C26.1611 86.181 25.5881 86.4383 25.197 86.5087ZM24.231 85.2307H23.8403V86.3349H24.231C24.7069 86.3349 25.0517 86.0583 25.0517 85.7647C25.0517 85.471 24.6913 85.2307 24.231 85.2307ZM36.2577 88.0369H32.7792L33.2786 87.7356V85.2555L32.7792 84.9447H36.2577V85.6278L35.6062 85.2307H34.2817V86.2497H35.2156L35.7213 85.9384V86.8442L35.2156 86.5434H34.2817V87.7526H35.6062L36.2577 87.3539V88.0369ZM43.5878 85.713V87.7356L44.0847 88.0369H42.5388L43.0426 87.7356V85.2555L42.5388 84.9447H43.8696L46.0237 86.8442V85.2555L45.5179 84.9447H47.0663L46.5601 85.2555V88.3746L43.5878 85.713ZM55.6057 85.2307V87.7356L56.1115 88.0369H54.1057L54.6031 87.7356V85.2307H53.8516L53.2084 85.6278V84.9447H56.9995V85.6278L56.3572 85.2307H55.6057ZM65.5565 88.1326C64.1935 88.1326 63.2572 87.3292 63.2572 86.4922C63.2572 85.6525 64.1935 84.859 65.5565 84.859C66.9034 84.859 67.8451 85.6519 67.8451 86.4922C67.8451 87.3292 66.9029 88.1326 65.5565 88.1326ZM64.4446 86.4917C64.4446 87.0696 64.6056 87.8379 65.556 87.8379C66.4992 87.8379 66.6655 87.0696 66.6655 86.4917C66.6655 85.9044 66.4987 85.1427 65.556 85.1427C64.6056 85.1427 64.4446 85.9044 64.4446 86.4917ZM75.1381 85.713V87.7356L75.6355 88.0369H74.096L74.5934 87.7356V85.2555L74.096 84.9447H75.42L77.5745 86.8442V85.2555L77.0756 84.9447H78.6147L78.1177 85.2555V88.3746L75.1381 85.713Z" fill="white"/>
<path fill-rule="evenodd" clip-rule="evenodd" d="M41.2061 37.6188C41.2061 37.6188 44.1545 39.891 47.3423 40.4173C49.548 40.7819 49.8694 40.0472 49.8694 40.0472C49.8694 40.0472 50.2449 39.9785 50.122 40.6692C50.122 40.6692 49.9762 40.8748 49.7304 40.9876C49.4856 41.1102 49.3027 41.3868 49.4178 41.6365C49.5397 41.8861 49.5695 41.5754 49.9065 41.5677C50.2512 41.5578 50.6121 41.4286 50.833 41.5677L50.9939 41.2911L52.1209 41.9032C52.1209 41.9032 51.7542 42.8875 51.6694 44.1067C51.6694 44.1067 51.1095 42.4564 50.6818 41.9472C50.6818 41.9472 50.2751 41.6266 49.9694 41.8784C49.9694 41.8784 51.0178 43.8983 51.0178 45.4529C51.0178 45.4529 48.8731 44.192 47.77 43.6657C47.77 43.6657 47.3423 42.689 47.3174 42.1182C47.3174 42.1182 47.4633 41.9543 47.9758 41.9296C48.4815 41.9026 48.8273 41.3857 48.0997 41.246C47.3633 41.1102 43.7726 41.1789 41.2061 37.6188ZM54.7699 35.3047C54.7699 35.3047 54.8631 34.3281 55.1244 34.3281C55.3761 34.338 55.9579 34.3721 56.4026 34.2692C56.8483 34.1642 57.8885 33.9657 59.927 35.2877C62.2633 36.7983 61.3729 39.8223 61.3729 39.8223L60.1727 39.3131C60.1727 39.3131 60.5697 37.4472 60.003 36.8769C59.7334 36.6102 58.9848 36.3749 58.2723 36.2209C57.475 36.04 56.8703 35.7117 56.3577 36.3925C56.3577 36.3925 55.1937 35.5032 54.7699 35.3047Z" fill="#8FA6C6"/>
<path fill-rule="evenodd" clip-rule="evenodd" d="M56.8698 37.7486C56.8698 37.7486 56.9927 37.0144 57.2604 36.9457C57.5203 36.877 57.927 36.8869 58.3327 37.0243C58.7385 37.1618 58.9843 37.0859 59.1452 37.0414C59.3051 36.9974 59.9874 37.1442 59.6816 37.7931C59.3749 38.4321 59.8567 38.0873 59.5358 39.0029L56.8698 37.7486ZM54.8699 38.0252C55.1005 38.1038 55.9812 37.3174 56.188 37.3174C56.387 37.3246 56.188 37.8707 55.9729 38.3018C55.7603 38.7351 55.4911 39.0634 55.676 39.6145C55.851 40.1677 55.5301 40.496 55.5453 40.7896C55.5604 41.0932 55.7969 41.3428 55.9968 41.2741C56.1885 41.2032 56.1188 40.9365 56.5026 40.755C57.139 40.4608 57.6276 40.5053 57.6427 40.8061C57.6427 40.8061 55.9817 41.9032 55.6672 41.8785C55.3604 41.8444 54.6719 41.35 54.3729 41.0558C54.073 40.7643 54.5797 38.3969 54.3032 38.37C54.0364 38.3529 53.8058 40.2799 53.6146 40.3827C53.4156 40.4877 53.0548 40.5906 53.0548 39.6579C53.0548 38.7153 53.2089 37.8707 52.9938 37.819C52.7797 37.7651 52.849 38.0758 52.788 38.4921C52.7271 38.9056 52.6422 39.4324 52.4272 39.5721C52.2214 39.709 51.9824 39.6304 51.8605 39.3565C51.7376 39.0799 52.1131 37.6963 51.9673 37.307C51.8312 36.9199 51.6547 37.2729 51.6157 37.4538C51.5854 37.6353 51.5006 38.9402 51.3938 39.0453C51.285 39.1382 50.8881 39.1729 50.713 38.0246C50.5282 36.8764 50.6881 36.7021 50.9339 36.514C51.1709 36.3325 52.5339 35.6055 52.7188 35.451C52.9036 35.2871 53.1552 35.6765 52.8105 35.8745C52.4667 36.073 52.0609 36.3325 52.2218 36.4282C52.3735 36.514 52.8192 36.497 53.3313 36.0389C53.837 35.5808 54.1886 35.8574 54.1735 36.046C54.1584 36.2275 53.8984 36.6333 53.8067 36.7219C53.1484 37.2652 53.301 37.6446 53.501 37.5077C53.6999 37.368 53.9828 37.1426 54.3037 36.8489C55.1161 36.1164 55.8515 36.5476 55.3848 37.1255C55.1156 37.472 54.6421 37.9564 54.8699 38.0252ZM53.2693 42.6549C53.2693 42.6549 52.6417 44.5472 52.8027 46.1975L52.672 46.3004C52.672 46.3004 52.3872 44.2096 52.6939 42.3189L53.2693 42.6549ZM26.9823 21.2092C26.9823 21.2092 28.4761 20.9915 30.3063 22.3817C32.1365 23.7719 32.4276 24.8794 32.4276 24.8794C32.4276 24.8794 32.4037 22.9008 31.3855 22.1078C30.3584 21.3214 28.9491 20.6802 27.0277 20.1369C27.0277 20.1369 26.9433 20.7171 26.9823 21.2092Z" fill="#8FA6C6"/>
<path fill-rule="evenodd" clip-rule="evenodd" d="M58.1416 30.6239C58.5634 30.6926 58.9063 30.5381 59.175 30.3132C59.412 30.0465 59.5968 29.7863 59.6968 29.6054C59.0062 30.4847 58.027 30.2521 57.8202 29.9678C58.1782 29.4069 58.0719 28.9395 58.0719 28.9395C58.0719 28.9395 55.9422 30.3473 54.5724 28.092C54.6933 28.8438 55.9422 30.4842 57.2755 29.6912L57.0687 30.1146C57.0687 30.1141 57.2063 30.4842 58.1416 30.6239Z" fill="white"/>
<path fill-rule="evenodd" clip-rule="evenodd" d="M52.7793 40.8237C52.8793 40.8677 53.7449 41.4039 53.7449 41.4039L53.6752 42.0775C53.6752 42.0775 53.0476 41.6095 52.7788 41.5144C52.5179 41.4286 52.5638 40.711 52.7793 40.8237ZM51.7372 40.1847C52.021 40.3662 52.2736 40.4613 52.2736 40.4613L52.1605 41.1009C52.1605 41.1009 51.6548 40.8584 51.509 40.6868C51.2934 40.4536 51.5085 40.0379 51.7372 40.1847ZM54.3657 41.7393C54.6086 41.8449 55.3059 42.3712 55.3059 42.3712L55.2142 42.9761C55.2142 42.9761 54.4418 42.6725 54.2028 42.4839C54.0809 42.1358 54.1355 41.6365 54.3657 41.7393ZM56.0813 42.2832C56.0813 42.2832 55.8272 42.3002 55.7907 42.5939C55.7604 42.8876 55.7209 43.157 55.7209 43.157C55.7209 43.157 57.299 42.3882 58.0324 41.1003C58.0329 41.1003 56.8635 41.9549 56.0813 42.2832ZM70.3596 45.9896C70.3596 45.9896 71.3149 45.3237 71.9206 44.7798C71.9206 44.7798 72.6419 44.9613 72.9866 44.9272C72.9866 44.9272 72.9237 45.0471 72.7116 45.4463C72.3117 46.1612 72.3117 46.957 72.3117 46.957C72.3117 46.957 70.9711 46.5088 70.3596 45.9896ZM73.5752 45.1598C73.5752 45.1598 73.1086 45.85 72.9866 47.0939C73.6601 47.5448 74.8476 47.6817 74.8476 47.6817C74.8476 47.6817 74.417 45.7471 74.9075 44.9272C74.9075 44.9272 74.0658 44.9541 73.5752 45.1598ZM75.5508 44.9613C75.5508 44.9613 75.3299 47.0251 75.5595 47.7945C75.5595 47.7945 76.5246 48.2449 77.5053 48.1222C77.5053 48.1222 77.0147 46.1612 76.7387 44.9272C76.7382 44.9272 75.7965 44.8931 75.5508 44.9613ZM77.5117 44.6165C77.5117 44.6165 77.8345 47.4051 78.3231 48.0881L78.623 47.9682C78.623 47.9682 79.4594 44.9882 79.8261 43.8378C79.8261 43.8378 78.033 44.5038 77.5117 44.6165ZM80.5835 43.752C80.5835 43.752 79.772 46.4653 79.7178 47.8291C79.7178 47.8291 81.9323 47.2583 82.7838 46.715C82.7838 46.7144 81.274 44.0798 80.5835 43.752ZM81.075 43.2428C81.075 43.2428 82.4751 44.4768 83.4256 46.4136C83.4256 46.4136 84.4589 46.1981 84.7354 45.9215C84.7354 45.9215 83.0896 43.5095 83.0588 42.3442C83.0588 42.3442 81.8714 42.6549 81.075 43.2428ZM83.6323 41.9648L84.7964 41.24C84.7964 41.24 86.2291 43.2774 87.0869 44.6506C87.0869 44.6506 85.7161 45.5321 85.4259 45.5761C85.4259 45.5761 83.8771 43.2428 83.6323 41.9648ZM85.5259 40.9364C85.5259 40.9364 86.69 42.4471 87.5844 44.1485C87.5844 44.1485 88.0901 43.7515 88.489 43.3038C88.8869 42.8634 89.1927 42.2409 88.489 41.4116C87.7843 40.5911 87.7233 40.1776 87.3317 40.072C87.0567 40.0032 86.0687 40.4883 85.5259 40.9364Z" fill="#8FA6C6"/>
<path fill-rule="evenodd" clip-rule="evenodd" d="M42.5087 25.4744C42.5087 25.4744 41.527 23.6014 42.0395 20.9151C42.5452 18.2293 43.8785 16.0598 45.2488 15.1613C45.2488 15.1613 45.6551 18.3662 45.5331 21.9852C45.5331 21.9852 45.2269 18.281 44.8602 17.0711C44.8602 17.0711 41.5187 19.6206 42.5087 25.4744ZM47.1268 16.1632C47.1268 16.1632 46.2846 16.0873 45.7702 16.2078C45.7789 16.2688 45.794 16.3276 45.794 16.3887C45.794 16.4915 45.8004 16.5966 45.8004 16.6999C45.9847 16.6581 46.606 16.5284 47.0664 16.7439C47.0664 16.7439 46.9664 19.8609 47.2882 21.9957C47.2882 21.9957 47.2882 17.3389 47.6857 15.0936C47.6852 15.0931 47.2878 15.7051 47.1268 16.1632Z" fill="white"/>
<path fill-rule="evenodd" clip-rule="evenodd" d="M25.458 56.2681C25.458 56.2681 24.3398 56.2511 25.0279 56.6135C25.7184 56.9858 26.4674 57.6149 26.3304 58.2198C26.1914 58.8247 26.009 59.5764 23.8097 59.2311C23.8097 59.2311 23.5424 59.7134 22.6915 59.6204C21.8337 59.5324 21.8946 59.8701 21.8946 59.8701C21.8946 59.8701 22.9368 60.4481 24.6455 60.3793C26.3523 60.3106 27.9914 60.1374 28.2064 58.4007C28.3674 57.0545 26.3309 56.2681 25.458 56.2681ZM30.3366 55.6022C30.3366 55.6022 30.4429 55.0759 30.2366 55.1441C30.0371 55.2156 29.9523 55.5604 30.0522 55.9057C30.161 56.2511 30.2215 57.0985 29.9303 57.3036C29.646 57.512 28.5127 58.1857 29.0184 58.2638C29.4246 58.332 29.3398 58.0383 29.7304 57.8304C30.1147 57.6248 30.397 57.1914 30.397 56.7262C30.3975 56.2681 30.2824 55.9057 30.3366 55.6022Z" fill="#8FA6C6"/>
<path fill-rule="evenodd" clip-rule="evenodd" d="M30.2824 48.9768C30.2824 48.9768 30.7189 48.6314 30.5818 48.1393C30.4429 47.6471 30.7642 47.3705 30.8881 47.1648C30.8881 47.1648 30.7272 47.8038 30.9725 48.1733C31.2178 48.5385 30.7491 49.0208 30.6272 49.1599L30.2824 48.9768ZM28.9038 54.2994C28.9189 54.1702 28.9189 54.0476 28.8887 54.0228C28.8667 54.0058 28.6887 54.0228 28.6283 54.1262C28.5741 54.229 28.5132 54.5326 28.5741 54.5738C28.6366 54.6112 28.8887 54.4276 28.9038 54.2994ZM29.5943 53.1759C29.6158 53.0462 29.6094 52.9164 29.5792 52.8993C29.5553 52.8823 29.3793 52.8993 29.3251 53.0022C29.2642 53.1072 29.2037 53.4086 29.2642 53.4526C29.3334 53.4872 29.5787 53.3057 29.5943 53.1759ZM30.1152 52.0008C30.1152 51.871 30.1 51.7412 30.0757 51.7242C30.0454 51.7071 29.8694 51.7511 29.824 51.8638C29.785 51.9766 29.746 52.2878 29.8152 52.312C29.8762 52.3456 30.1064 52.1306 30.1152 52.0008ZM30.5818 50.9037C30.5731 50.7662 30.5516 50.6441 30.5209 50.637C30.4887 50.6199 30.3214 50.6782 30.2824 50.791C30.2522 50.9136 30.2454 51.2243 30.3127 51.2413C30.3824 51.2661 30.5887 51.0335 30.5818 50.9037ZM30.9339 49.9369C30.9271 49.8072 30.9037 49.6873 30.873 49.6702C30.8427 49.6603 30.673 49.712 30.634 49.8341C30.6038 49.9468 30.597 50.2575 30.6579 50.2823C30.7277 50.3087 30.9427 50.0739 30.9339 49.9369ZM28.222 55.1617C28.146 55.1276 28.0397 55.1892 27.9768 55.3014C27.9158 55.4141 27.8158 55.6984 27.8768 55.7155C27.9397 55.7424 28.1855 55.6715 28.2611 55.517C28.3371 55.3597 28.2913 55.1958 28.222 55.1617Z" fill="white"/>
</g>
<defs>
<clipPath id="clip0_6_61">
<rect width="94" height="106" fill="white"/>
</clipPath>
</defs>
</svg>
