<svg width="79" height="50" viewBox="0 0 79 50" fill="none" xmlns="http://www.w3.org/2000/svg">
<g clip-path="url(#clip0_7_143)">
<path d="M41.13 13.9078H38.842L37.5516 18.1307H39.8384L41.13 13.9078ZM47.0653 25.0189C45.8667 25.219 43.7491 27.383 42.5957 32.1111C41.4423 36.8392 41.4381 39.758 41.4381 39.758C41.4381 39.758 42.0464 38.4122 42.9789 37.003C43.9114 35.5939 44.6054 35.0932 44.6054 35.0932C44.6054 35.0932 44.7784 33.3573 45.2091 31.5417C45.6279 29.7756 46.2924 27.9369 47.1147 27.5197C48.7814 26.673 47.9832 32.8126 46.759 36.8161C46.101 38.9677 43.7671 45.1513 41.7578 45.1513C39.7484 45.1513 39.3607 41.2413 39.7844 37.5855C40.2078 33.9305 40.7939 29.2866 43.7253 20.8486C46.6568 12.4106 49.8299 7.40816 51.6665 5.30599C53.553 3.14821 54.3216 4.09383 54.3216 4.09383C54.3216 4.09383 51.9134 7.08754 50.5434 10.6893C49.2334 14.1318 48.4518 18.0055 49.0597 19.9037C49.6385 21.7123 51.6788 21.7463 53.9254 15.1995C56.143 8.73698 55.5829 4.89421 55.5829 4.89421C55.5829 4.89421 55.8509 4.71807 56.0308 4.6694C57.1122 4.37891 57.9785 4.95447 59.3198 6.34278C60.7251 7.79753 62.0733 10.1307 63.9207 12.0397C64.4769 10.8098 65.0959 9.50337 65.747 8.22863C63.2565 5.7819 61.3659 2.29451 58.9233 1.95999C56.7972 1.6695 55.1209 3.23319 55.1209 3.23319C55.1209 3.23319 54.4724 1.45087 52.4719 2.03261C50.4714 2.61513 44.308 7.81608 39.064 24.7647C34.3226 40.0887 36.5567 48.8705 39.9647 48.77C43.6591 48.6603 47.1736 40.3683 48.363 33.5303C49.5523 26.6923 48.1467 24.8389 47.0653 25.0189ZM54.3178 10.7797C53.6969 13.8344 52.7828 15.969 51.8832 17.5991C50.7294 19.6905 50.0963 19.6202 49.8222 19.1999C49.1064 18.0998 50.0668 13.9511 51.7339 10.2412C53.3941 6.54597 54.8235 5.39639 54.8235 5.39639C54.8235 5.43965 55.0612 7.1169 54.3178 10.7797ZM74.8906 6.32502C73.2001 8.51989 70.8563 10.5077 68.6066 10.0697C68.0377 11.2617 67.4275 12.6354 66.8154 14.138C70.72 15.6924 74.1353 10.8106 75.9536 6.65104C77.0879 4.05752 77.6479 1.74213 77.6479 1.74213C77.6479 1.74213 76.5649 4.151 74.8906 6.32502Z" fill="#F40009"/>
<path d="M72.2007 22.1915H69.7948L69.404 23.4106C69.404 23.4106 68.9132 21.6236 68.0822 21.6522C66.6582 21.7017 65.233 23.8958 63.577 27.7015C62.3632 30.4897 60.3512 36.6973 60.3512 36.6973C60.3512 36.6973 58.8073 41.4988 58.0264 41.1225C56.695 40.4805 59.1438 30.5383 59.1438 30.5383C59.1438 30.5383 60.4312 28.9337 62.0994 26.1007C63.1498 24.3176 64.3583 21.8647 65.4692 19.591C66.4794 17.5228 67.6699 14.7145 68.8015 11.6382C68.5117 11.7309 68.2146 11.7934 67.9118 11.8236C66.897 14.5245 65.8137 16.9419 64.8923 18.8632C63.5207 21.7233 62.259 24.0634 61.3422 25.556C60.4637 26.9853 59.9002 27.6288 59.9002 27.6288C59.9002 27.6288 61.5761 20.6826 64.3694 13.0079C67.1627 5.33398 71.0738 -1.7953 70.7671 1.58702C70.6795 2.55814 70.3805 3.95108 69.9292 5.60438C70.2469 5.47073 70.5555 5.30385 70.8533 5.1138C71.5262 2.31014 71.7555 -0.000615954 71.2533 -0.668117C69.2038 -3.3922 63.9908 7.87961 61.3774 14.4264C58.7645 20.9731 56.3995 30.9779 56.3995 30.9779C56.3995 30.9779 55.9907 31.324 55.5386 31.4971C55.2534 31.6068 55.1317 31.5828 55.085 31.5458C55.0616 31.5264 55.059 31.494 55.059 31.494C55.059 31.494 57.3577 22.8211 55.0042 21.6708C52.7331 20.5614 48.7979 29.0411 47.3988 34.9397C46.4387 38.9864 45.897 44.0807 47.5435 45.2937C49.3265 46.6078 52.3553 40.0379 53.0673 38.1288C53.7793 36.219 54.6681 33.0438 54.6681 33.0438C54.6681 33.0438 55.103 32.9974 55.3407 32.9271C55.7955 32.7919 56.0083 32.6791 56.0083 32.6791C56.0083 32.6791 55.7135 34.2374 55.3947 36.2129C54.8002 39.8965 54.2639 45.167 56.4041 45.415C57.7677 45.5718 59.7682 40.6018 59.7682 40.6018C59.7682 40.6018 59.2299 45.0209 60.9996 45.415C62.3061 45.7054 64.2075 41.6317 64.2075 41.6317C64.2075 41.6317 63.7933 45.1415 65.1178 45.4505C66.2516 45.7155 67.8613 43.0323 69.1812 40.0803C70.6224 36.8572 71.728 33.3273 71.728 33.3273H70.89C70.89 33.3273 69.0354 39.0088 67.7331 40.5292C66.6639 41.7777 67.0303 39.7775 67.3545 38.7291C67.712 37.5726 72.1996 22.1915 72.1996 22.1922L72.2007 22.1915ZM53.8704 32.8924C53.8374 33.0445 53.2353 35.1591 52.5911 36.8216C51.897 38.6132 50.6265 41.3095 49.8628 40.7394C48.6689 39.8478 49.9827 34.5982 50.8417 32.0518C51.7007 29.5054 51.7983 29.3331 51.8224 29.2667C51.8465 29.2002 51.8706 29.1392 51.8917 29.218C51.9127 29.2968 52.1861 30.3429 52.7258 31.2506C53.2678 32.1623 53.7892 32.6436 53.8313 32.6737C53.8734 32.7038 53.9037 32.7402 53.8704 32.8916V32.8924ZM54.4074 31.0003C54.332 31.2537 54.2781 31.2661 54.1215 31.1819C53.8459 31.0312 52.704 29.9659 52.7128 27.6026C52.7208 25.2995 54.3293 23.0436 54.9602 24.0078C55.5489 24.9071 55.2676 27.2062 55.0456 28.379C54.8239 29.551 54.4568 30.8342 54.4074 31.0003ZM65.3371 36.6973C65.0194 37.5765 64.7537 38.3707 64.5141 38.9285C64.0019 40.1221 63.6677 40.6775 63.3699 40.8243C63.2199 40.8977 63.0338 40.88 62.9106 40.7293C62.4734 40.1924 62.7796 38.1018 63.5406 35.2912C64.237 32.7224 65.0416 30.152 66.3642 27.1931C67.6921 24.2226 68.2001 24.0796 68.5718 24.1136C68.8845 24.1407 68.9289 24.8043 68.9289 24.8043C68.9289 24.8043 68.9067 24.9581 68.857 25.1319C68.4187 26.6654 66.2107 34.2799 65.3367 36.6973H65.3371ZM29.8489 40.4133C28.3901 38.5939 26.5186 37.4266 24.3684 37.3887C18.8293 37.2914 12.7983 42.7225 8.71343 42.7959C3.89552 42.8809 3.6555 35.4001 4.01266 31.2924C4.78132 22.4426 7.89156 13.9999 9.89131 9.54836C11.8914 5.09681 13.9873 1.64264 15.7298 0.759593C17.4723 -0.123455 17.3084 2.55119 17.0952 2.91661C16.8751 2.92588 16.4529 3.02168 16.2132 3.3562C15.8381 3.87846 15.337 4.8349 15.3056 6.35146C15.2516 8.68771 16.7476 9.09718 17.829 4.20526C18.5667 0.868526 17.3969 -1.39588 16.4253 -1.61374C15.0928 -1.9135 13.0563 -0.978691 10.6255 2.17417C6.39482 7.66097 0.735892 19.8452 0.591577 33.3636C0.509275 41.0754 3.00551 45.415 6.43042 45.415C9.85532 45.415 14.5052 41.182 19.0456 41.0739C21.8569 41.0252 23.6763 43.0138 24.5977 46.2524C24.5977 46.2524 25.5134 43.1784 27.5525 43.0138C29.5699 42.85 31.7909 43.9911 33.6142 46.5777C33.0059 44.8039 31.2864 42.2057 29.8486 40.4133H29.8489Z" fill="#F40009"/>
<path d="M18.1101 10.9531C15.7881 9.75869 11.9318 17.7363 10.3068 24.2289C9.3046 28.2339 8.86515 33.2672 10.6494 34.5768C12.4336 35.8863 15.4608 29.321 16.1728 27.4119C16.8848 25.5021 18.05 21.6771 18.05 21.6771C18.05 21.6771 18.4076 21.5381 18.6418 21.4284C18.8761 21.3187 19.2547 21.1008 19.2547 21.1008C19.2547 21.1008 18.8156 22.6799 18.4194 24.2985C17.9497 26.2175 16.6735 32.6059 19.1376 34.5219C21.4918 36.3521 24.8432 28.7199 25.0193 28.5754C25.0193 28.5754 24.0217 33.7764 25.5713 34.5768C27.2717 35.4544 29.1351 31.0577 29.1351 31.0577C29.1351 31.0577 28.7428 34.3581 30.0676 34.6679C32.4402 35.2218 36.6369 22.9743 36.6369 22.9743H35.7985C35.7985 22.9743 33.6629 28.5206 32.6358 29.6663C31.6088 30.812 31.9782 28.7763 32.2573 27.8662C32.6133 26.7081 37.1502 11.4081 37.1502 11.4081H34.7443L34.4652 12.2989C34.4652 12.2989 33.9695 10.7715 33.1408 10.8805C30.7295 11.198 27.8604 18.9546 26.5987 22.3732C25.3374 25.7926 22.6161 32.3208 21.1833 31.1574C19.6218 29.8888 21.1744 24.0652 22.2015 20.6458C23.3197 16.9235 25.3014 13.2368 26.085 13.2082C27.0493 13.1719 26.6707 14.9357 26.6707 14.9357C26.6707 14.9357 25.9499 14.7541 25.4273 16.0814C25.0576 17.0201 24.7513 18.3906 25.1027 19.1362C25.6704 20.3406 26.4096 19.1176 26.851 17.7533C28.2271 13.5018 27.2204 11.2613 26.1394 10.9345C23.8364 10.2369 21.715 16.2081 20.1022 18.4269C18.9833 19.9651 18.5159 19.8454 18.5159 19.8454C18.5159 19.8454 20.4571 12.1598 18.1105 10.9523L18.1101 10.9531ZM28.5357 24.7018C29.232 22.1322 30.1806 19.6515 31.4151 16.5419C32.6496 13.4323 33.264 13.1804 33.6357 13.2144C33.9485 13.2422 33.9929 13.9051 33.9929 13.9051C33.9929 13.9051 31.3106 23.3374 30.3375 26.029C30.0198 26.9082 29.748 27.653 29.5084 28.2115C28.9962 29.4052 28.6241 29.9823 28.337 30.126C28.1869 30.2001 28.0009 30.1816 27.8773 30.0302C27.4401 29.4932 27.7735 27.5116 28.5353 24.7018H28.5357ZM17.152 21.6408C17.1187 21.7923 16.3527 24.3487 15.7088 26.0113C15.0152 27.8029 13.7332 30.5099 12.9695 29.9398C11.7756 29.0482 13.0491 23.8349 13.9081 21.2893C14.7671 18.7429 14.8931 18.4153 14.9176 18.3497C14.9417 18.2825 14.9654 18.2214 14.9865 18.301C15.0075 18.3798 15.2809 19.5139 15.8727 20.2772C16.4645 21.0413 17.0712 21.3928 17.1133 21.423C17.1554 21.4531 17.1857 21.4902 17.1524 21.6408H17.152ZM18.1507 17.6613C17.9287 18.8349 17.7304 19.5742 17.6894 19.7488C17.6236 20.0285 17.4586 19.9389 17.4586 19.9389C17.2707 19.9219 15.8095 19.249 15.8179 16.8857C15.826 14.5826 17.4349 12.3267 18.0653 13.2909C18.6541 14.1902 18.3727 16.4893 18.1507 17.6613ZM71.266 43.5216C71.1256 43.3609 70.9694 43.2813 70.7975 43.2813C70.6256 43.2813 70.4694 43.3617 70.3289 43.5216C70.1885 43.6823 70.0782 43.9001 69.9974 44.1775C69.9171 44.4541 69.8765 44.7554 69.8765 45.0798C69.8765 45.4043 69.9167 45.711 69.9974 45.9861C70.0778 46.2603 70.1885 46.4782 70.3289 46.6381C70.4694 46.7988 70.6256 46.8784 70.7975 46.8784C70.9694 46.8784 71.1256 46.798 71.266 46.6381C71.4065 46.4782 71.5168 46.2603 71.5975 45.9861C71.6779 45.7118 71.7185 45.4097 71.7185 45.0798C71.7185 44.75 71.6783 44.4541 71.5975 44.1775C71.5172 43.9009 71.4065 43.6823 71.266 43.5216ZM71.431 45.8246C71.3702 46.044 71.2844 46.2163 71.1746 46.3422C71.0647 46.4674 70.9388 46.53 70.7975 46.53C70.6562 46.53 70.5303 46.4674 70.4204 46.3422C70.3106 46.2171 70.2252 46.0448 70.164 45.8246C70.1031 45.6052 70.0725 45.3564 70.0725 45.0798C70.0725 44.8033 70.1031 44.5615 70.164 44.342C70.2248 44.1226 70.311 43.9504 70.422 43.8244C70.533 43.6985 70.6582 43.6367 70.7975 43.6367C70.9368 43.6367 71.062 43.6993 71.173 43.8244C71.284 43.9496 71.3702 44.1219 71.431 44.342C71.4919 44.5615 71.5225 44.8079 71.5225 45.0798C71.5225 45.3518 71.4919 45.6052 71.431 45.8246Z" fill="#F40009"/>
<path d="M71.1109 47.5324C71.1369 47.4466 71.1499 47.3508 71.1499 47.2458C71.1499 47.1005 71.1266 46.9792 71.0799 46.8803C71.0332 46.7814 70.9704 46.732 70.8923 46.732H70.4253V48.3598H70.6309V47.7665H70.7874L70.9769 48.3598H71.2119L70.9999 47.7271C71.0477 47.683 71.0849 47.6181 71.1109 47.5324ZM70.9149 47.3609C70.8996 47.3895 70.8789 47.4034 70.8529 47.4034H70.6309V47.0874H70.8529C70.8789 47.0874 70.8996 47.1021 70.9149 47.1299C70.9302 47.1585 70.9379 47.1971 70.9379 47.245C70.9379 47.2929 70.9302 47.3315 70.9149 47.3601V47.3609Z" fill="#F40009"/>
</g>
<rect x="0.5" y="0.5" width="78" height="49" stroke="black"/>
<defs>
<clipPath id="clip0_7_143">
<rect width="79" height="50" fill="white"/>
</clipPath>
</defs>
</svg>
