<svg width="89" height="100" viewBox="0 0 89 100" fill="none" xmlns="http://www.w3.org/2000/svg">
<g clip-path="url(#clip0_6_48)">
<path fill-rule="evenodd" clip-rule="evenodd" d="M0 0H89V100H0V0Z" fill="white"/>
<path fill-rule="evenodd" clip-rule="evenodd" d="M54.9368 62.4567C54.5167 62.6927 54.6566 63.6369 53.8864 63.7941C53.1153 63.9524 53.1855 64.2673 52.6259 64.109C52.0649 63.9518 51.8821 64.2366 50.9711 64.7881L50.9803 64.8011C52.6416 64.6382 54.8888 64.1578 56.6877 62.439L56.7292 62.4115C56.6443 62.3773 56.4116 62.2476 56.3377 62.2201C55.9171 62.0634 55.3575 62.2206 54.9368 62.4567ZM57.3189 50.6511C57.3881 51.0443 56.4785 52.54 55.6368 53.2481C54.7965 53.9563 54.0263 54.8227 53.4662 55.7669C52.9052 56.7111 51.7842 58.6788 51.1539 59.4653C50.5237 60.2529 49.5434 61.512 48.9824 62.7716C48.7797 63.2276 48.1638 63.8579 47.4999 64.481L47.5008 64.4883C47.2791 64.2532 47.2016 63.8865 47.2016 63.3251V44.1335C47.2016 43.3776 47.2016 42.6601 48.7825 42.6601C53.0184 42.6601 54.9013 43.6801 56.5155 45.3044C57.7229 46.5246 58.5212 47.9383 59.0079 49.462C59.0079 49.462 58.2294 49.682 57.9491 49.7064C56.9689 49.7909 57.2482 50.2568 57.3189 50.6511ZM75.8095 37.4613C75.8155 37.4505 75.8155 37.4525 75.8095 37.4613V37.4613ZM75.58 32.3782H75.5791L75.5847 32.3845L75.58 32.3782ZM42.6711 42.3157C43.6001 42.6923 43.7724 43.4746 43.7724 45.404V62.1781C43.7724 65.1419 42.6698 65.2239 42.6698 65.2239C41.8488 64.8509 41.5215 64.0457 41.5215 62.1537V45.3796C41.5215 42.3681 42.6711 42.3157 42.6711 42.3157ZM75.6715 37.507C75.6958 37.5167 75.7223 37.5175 75.7471 37.5093C75.7718 37.5011 75.7937 37.4843 75.8095 37.4613C75.7887 37.4982 75.7015 37.6808 75.5306 38.294C75.1806 39.5531 75.4614 40.2613 74.9706 40.655C74.4802 41.0483 74.9004 41.442 73.9894 42.0713C73.0793 42.7011 73.2192 42.9372 72.6592 43.1732C72.0982 43.4093 70.9771 43.2521 71.2578 43.9602C71.5381 44.6689 72.3083 45.0621 72.028 45.3771C71.7487 45.6914 71.5381 45.6914 71.0478 45.928C70.5574 46.1646 70.2776 46.6362 70.0675 46.6362C69.8574 46.6362 69.7873 46.1641 69.7873 46.1641C69.6474 45.2987 69.6473 44.905 69.4373 44.59C69.2263 44.2757 69.7873 44.59 70.1372 43.803C70.4881 43.016 70.1372 42.5439 70.9776 42.4651C71.8179 42.3862 71.2578 41.9141 71.8886 41.7564C72.5193 41.5987 72.7289 41.2055 72.939 40.8117C73.1491 40.4185 73.6399 40.4973 73.9201 39.8675C74.1995 39.2377 73.9201 39.08 74.4802 38.6079C75.0407 38.1368 75.4614 37.4287 75.6715 37.507ZM49.3564 66.2713H49.3698C49.3726 66.2682 49.3781 66.2672 49.3814 66.2641L49.3564 66.2713ZM58.8273 63.7739V63.7812L58.8301 63.7801L58.8273 63.7739ZM19.0041 81.448H18.3817V75.8638H19.0161C19.6732 75.8638 20.146 75.9541 20.5731 76.5761C20.9535 77.1333 21.1382 77.884 21.1382 78.5843C21.1382 79.2447 21.0112 79.9321 20.7 80.5023C20.2725 81.28 19.7766 81.448 19.0041 81.448Z" fill="black"/>
<path fill-rule="evenodd" clip-rule="evenodd" d="M87.6915 66.0768C87.6915 71.8229 86.8022 77.3361 85.17 82.4519H74.7831V74.2301H72.9389V77.7034H70.4941V74.2301H68.6491V82.4519H62.275V75.9935H64.2581V74.2306H58.4233V75.9935H60.4299V82.4519H53.3392C53.3863 82.4063 53.4348 82.3658 53.4782 82.316C54.1357 81.5907 54.1246 80.5791 54.1246 79.6074V74.2301H52.5331V79.6074C52.5331 80.0743 52.5672 80.6958 52.3138 81.0979C52.0829 81.4475 51.5408 81.5772 51.1719 81.5772C50.7217 81.5772 50.2258 81.4475 49.9844 80.9817C49.7997 80.619 49.8112 80.0219 49.8112 79.6079V74.2306H47.8046V79.6079C47.8046 80.6818 47.8415 81.6914 48.5955 82.4519H43.6777V81.3578H40.495V74.2306H38.65V82.4524L33.0469 82.4514C33.0936 82.4068 33.1421 82.3653 33.1859 82.3165C33.8434 81.5912 33.8314 80.5796 33.8314 79.6079V74.2306H32.2403V79.6079C32.2403 80.0748 32.2749 80.6963 32.021 81.0984C31.7906 81.4481 31.2485 81.5778 30.8796 81.5778C30.4299 81.5778 29.934 81.4481 29.6916 80.9822C29.5074 80.6195 29.5185 80.0224 29.5185 79.6084V74.2312H27.5118V79.6084C27.5118 80.6813 27.5487 81.6908 28.3018 82.4514H21.4383C21.6494 82.2902 21.8427 82.1015 22.0141 81.889C22.7177 80.9941 23.0405 79.8414 23.0405 78.6497C23.0405 77.3667 22.6716 76.1356 21.8183 75.2288C20.953 74.309 19.9732 74.2306 18.8319 74.2306H16.5366V82.4514H3.82908C2.19781 77.3356 1.30853 71.8234 1.30853 66.0773C1.30853 64.8302 1.35101 63.7132 1.4332 62.4914C2.42175 64.7482 4.50043 66.801 8.87618 66.801C17.5843 66.801 17.5843 59.6983 17.5843 56.6763V46.8157C17.563 43.0503 18.4856 42.6861 18.4856 42.6861C18.9321 43.1572 19.0955 43.9628 19.0955 45.3797V60.7177C19.0955 64.798 18.3895 65.3645 15.8339 65.5528V66.2714H23.7354V65.5528C21.2808 65.4403 20.5749 64.6086 20.5749 60.7177V45.6442H20.6423L29.0143 66.2714H29.4852L38.0253 44.7753H38.0922V61.7376C38.0922 64.8353 37.655 65.4013 35.0328 65.5528V66.2714L45.6169 66.2755C45.4078 66.5256 45.3519 66.6859 45.55 66.7061C46.321 66.785 45.8302 66.5489 46.8811 66.6283C47.9237 66.7061 48.9436 66.5805 49.3703 66.2714H50.362C54.1228 66.2714 56.8631 65.2825 58.8273 63.7806C58.8555 63.9658 58.8245 63.9456 58.6495 64.0297C58.1592 64.2667 57.3881 65.2109 56.9675 65.1321C56.5468 65.0532 56.6881 65.5253 56.6175 66.0763C56.5468 66.6272 56.1271 66.8638 55.9872 67.3359C55.8473 67.808 56.4074 68.9094 56.5473 68.2801C56.6881 67.6498 57.3184 66.7844 57.5977 66.7056C57.878 66.6278 58.9289 66.3917 59.2798 66.7056C59.6298 67.0205 60.26 67.7292 60.9609 67.1777C61.6618 66.6272 63.2021 65.7614 63.4824 65.683C63.7627 65.6042 64.1126 64.8955 64.8135 63.9513C65.5144 63.0071 66.4947 62.0624 67.1249 61.8264C67.7552 61.5903 69.2964 61.4321 69.9267 61.1172C70.5569 60.8033 71.3977 59.5437 71.9582 59.0716C72.5183 58.5995 73.4293 57.812 73.7096 57.3399C73.9889 56.8678 74.76 55.7664 75.3201 55.2149C75.8811 54.6639 76.6512 54.0346 76.7214 53.6404C76.7906 53.2471 76.4411 52.0669 77.2815 51.7514C78.1218 51.436 78.2626 51.0433 78.6828 50.5712C79.103 50.0991 79.313 49.3909 79.8731 49.2332C80.4341 49.0755 80.8543 49.0755 81.5543 49.1549C82.2551 49.2332 83.0955 49.3121 83.5156 49.3121C83.9358 49.3121 84.6367 49.5487 83.5858 49.9419C82.5354 50.3351 81.8345 51.0433 81.8345 51.5154C81.8345 51.9875 80.8543 52.2235 80.574 52.6956C80.2937 53.1677 80.574 53.6398 80.2231 54.1913C79.8731 54.7423 79.3828 54.6634 79.103 55.4509C78.8227 56.2385 78.752 56.8672 78.4021 57.1827C78.0521 57.4965 77.9819 58.7562 77.9117 59.3076C77.8425 59.8586 77.8425 60.409 77.9819 60.5673C78.1218 60.7244 78.1218 60.8822 78.7521 60.0951C79.3823 59.3081 78.9621 58.4412 80.0126 58.3634C81.063 58.2846 81.6946 58.1274 82.6042 58.2062C83.5152 58.2841 83.7253 57.7341 84.0055 57.812C84.2858 57.8908 85.6867 58.9144 85.9669 58.9144C86.2463 58.9144 86.7371 59.7009 87.2274 60.2518L87.3969 60.3945C87.5913 62.259 87.6915 64.1547 87.6915 66.0768ZM1.42073 62.4645C1.42443 62.4738 1.4295 62.4831 1.4332 62.4914L1.43504 62.4645H1.42073Z" fill="black"/>
<path fill-rule="evenodd" clip-rule="evenodd" d="M70.4942 79.4528H72.939V82.4524H70.4942V79.4528ZM25.0781 36.2987C25.0781 35.7224 24.953 34.966 24.6025 34.5717C24.4608 34.4094 24.2692 34.314 24.0669 34.305V34.3164H24.0189C23.1717 34.3164 22.9449 35.5522 22.9449 36.2827C22.9449 36.8404 23.0742 37.6362 23.439 38.046C23.5964 38.2234 23.7871 38.3132 24.0046 38.3132C24.2438 38.3132 24.4479 38.2198 24.6113 38.0362C25.0444 37.5495 25.0781 36.5836 25.0781 36.2987ZM58.8338 36.2987C58.8338 35.7224 58.7091 34.966 58.3587 34.5717C58.2168 34.4096 58.0253 34.3142 57.8231 34.305V34.3164H57.7746C56.9269 34.3164 56.7016 35.5522 56.7016 36.2827C56.7016 36.8404 56.8304 37.6362 57.1947 38.046C57.3535 38.2234 57.5428 38.3132 57.7603 38.3132C57.873 38.3157 57.985 38.2925 58.0895 38.2449C58.1939 38.1972 58.2887 38.1262 58.3679 38.0362C58.8006 37.5495 58.8338 36.5836 58.8338 36.2987ZM47.8443 28.0287C47.9524 27.9068 48.0022 27.7164 48.0022 27.4134C48.0022 26.878 47.6984 26.5444 47.1688 26.4977C47.0598 26.4879 46.9749 26.519 46.9098 26.5922C46.6914 26.8376 46.7394 27.5042 46.7708 27.9457C46.7791 28.0578 46.7842 28.1517 46.787 28.2321H47.1864C47.5114 28.2321 47.721 28.1672 47.8443 28.0287Z" fill="black"/>
<path fill-rule="evenodd" clip-rule="evenodd" d="M75.5791 32.3782C67.7242 23.2345 56.7034 17.5475 44.4995 17.5475C25.9341 17.5475 10.1039 30.7103 3.99807 49.1829L3.96667 57.469C3.96667 59.8866 3.96667 65.1372 9.81717 65.1372C12.4398 65.1372 14.3564 63.9285 15.3311 62.1532C15.7683 61.3221 16.1045 60.0749 16.1045 57.0151V46.8156C16.1045 42.7732 15.2974 42.1315 12.944 41.98V41.262H22.558L30.3246 60.3395L37.7556 41.262H49.8911C55.8053 41.262 60.2572 43.4741 62.2126 47.9876L62.2182 47.9798C62.872 47.3515 64.0632 46.0769 64.4635 45.6919C64.9534 45.2198 65.9346 44.59 66.074 44.1968C66.2139 43.803 68.1753 41.5997 68.3157 40.8122C68.4556 40.0252 68.5258 38.6084 68.946 38.2151C69.3661 37.8214 69.156 37.8214 69.6469 38.294C70.1367 38.7661 70.417 39.317 70.767 38.4512C71.1179 37.5853 71.1872 37.507 71.2573 37.1921C71.3275 36.8772 71.4674 36.3262 72.5179 35.5392C73.5683 34.7522 74.4091 34.4373 74.4091 34.5161C74.4091 34.595 74.4793 34.0441 74.6201 34.0441C74.76 34.0441 75.11 33.6508 74.8994 32.9421C74.7018 32.2729 75.0661 32.3061 75.5791 32.3782ZM49.7678 29.1928H49.9156L49.9271 29.2266C49.9553 29.3039 49.9802 29.3801 50.0056 29.4543C50.1654 29.93 50.2914 30.3067 50.7153 30.4385C50.8967 30.5007 51.1193 30.4696 51.2989 30.3575C51.4078 30.289 51.5505 30.1588 51.6055 29.9274C51.7495 29.3158 51.2961 28.9822 50.8164 28.6289C50.3006 28.2486 49.7161 27.818 49.8786 26.9729C49.9437 26.6414 50.0841 26.4002 50.2979 26.2544C50.6479 26.0163 51.1165 26.0874 51.4485 26.189C51.5542 26.2191 51.5542 26.2191 51.5621 26.2222C51.5639 26.2233 51.5695 26.2254 51.6073 26.2378C51.6507 26.2471 51.8146 26.1688 51.8506 26.0609L51.8571 26.0443L51.8696 26.0344C51.8831 26.0234 51.899 26.0167 51.9156 26.0147C51.9322 26.0128 51.949 26.0159 51.9642 26.0235L52.0303 25.9488V27.4907H51.853L51.8474 27.443C51.7763 26.7369 51.6355 26.6461 51.3543 26.465C51.2028 26.368 50.9664 26.3665 50.7665 26.4614C50.598 26.5413 50.4844 26.6741 50.4465 26.836C50.3196 27.389 51.0302 27.9202 51.1733 28.0209C51.8156 28.4504 52.335 28.8816 52.1734 29.806C52.106 30.1874 51.9282 30.481 51.6613 30.6553C51.3783 30.84 51.0274 30.8685 50.6728 30.7357C50.5821 30.703 50.4943 30.661 50.4105 30.6102C50.3463 30.5728 50.3122 30.5526 50.2092 30.5443C50.1335 30.5365 50.1146 30.5816 50.0813 30.6761C50.0699 30.712 50.0551 30.7465 50.037 30.7788C50.0317 30.7891 50.0246 30.7981 50.0161 30.8053C50.0076 30.8124 49.9979 30.8175 49.9876 30.8203C49.9783 30.822 49.9687 30.8215 49.9596 30.8188C49.9504 30.8161 49.9419 30.8113 49.9345 30.8047L49.886 30.8317L49.8786 30.7554L49.7198 29.2525L49.7133 29.1923L49.7678 29.1928ZM41.9965 30.7497V30.5505H42.0446C42.2062 30.5505 42.305 30.5199 42.3659 30.4514C42.4666 30.3388 42.4855 30.1002 42.4855 29.6997V27.292C42.5109 26.8635 42.5201 26.617 42.4227 26.4998C42.3608 26.4256 42.244 26.3919 42.0446 26.3919H41.9965V26.1709H44.9405V27.3459H44.7747L44.7724 27.2941C44.7456 26.5216 44.5208 26.5216 43.6846 26.5216C43.4099 26.5216 43.2584 26.5216 43.1956 26.5631C43.1472 26.5947 43.1435 26.6632 43.1393 26.8578C43.1379 26.9554 43.1343 27.0529 43.1287 27.1504V28.1106H43.3111L43.6647 28.1148C44.0466 28.1215 44.277 28.1257 44.379 28.0126C44.4432 27.9415 44.4709 27.8129 44.4709 27.583V27.5291H44.6819V29.0595H44.4709V29.0056C44.4709 28.8162 44.4441 28.7021 44.3841 28.6357C44.2853 28.5272 44.0734 28.5319 43.752 28.5386C43.6232 28.5418 43.4768 28.5449 43.3101 28.5418H43.1287V29.9259C43.1287 30.1531 43.1315 30.2849 43.1896 30.3497C43.2552 30.4234 43.4191 30.4369 43.6994 30.4369C44.4982 30.4369 44.7701 30.2543 45.0208 29.5498L45.0333 29.516H45.1935L45.1843 29.5788L45.0121 30.7585L45.0047 30.8037H41.9965V30.7497ZM35.3948 30.7497V30.5505H35.4428C35.6441 30.5505 35.7411 30.5256 35.8007 30.4582C35.8949 30.3523 35.9124 30.1101 35.9124 29.6992V27.2749C35.9124 26.8484 35.8935 26.5963 35.7961 26.4863C35.7356 26.4183 35.6368 26.3919 35.4428 26.3919H35.3948V26.1709H37.0732V26.3919H37.0252C36.6322 26.3919 36.5551 26.463 36.5551 27.2749V29.6992C36.5551 30.1101 36.5731 30.3523 36.6669 30.4582C36.7264 30.5256 36.8238 30.5505 37.0247 30.5505H37.0727V30.8037H35.3944V30.7497H35.3948ZM24.0526 38.6255V38.6317H23.9565V38.627C23.5267 38.6141 23.143 38.4361 22.8466 38.1031C22.4642 37.6735 22.2454 37.0224 22.2454 36.3158C22.2454 35.6331 22.4739 34.9685 22.8572 34.5379C23.1524 34.2037 23.5522 34.0123 23.9713 34.0046V33.9994H24.0674V34.0046C24.4903 34.0176 24.8698 34.1945 25.1653 34.5265C25.5495 34.9587 25.779 35.6393 25.779 36.348C25.7785 37.4655 25.1838 38.5928 24.0526 38.6255ZM29.2299 34.0524V35.1729H29.0637L29.0618 35.1211C29.035 34.3491 28.8102 34.3491 27.9735 34.3491C27.6988 34.3491 27.5478 34.3491 27.4846 34.3906C27.4361 34.4222 27.4324 34.4907 27.4282 34.6853C27.4269 34.7636 27.4245 34.8617 27.4176 34.9779V35.9382H27.6L27.9537 35.9418C28.3355 35.9485 28.5659 35.9527 28.668 35.8391C28.7326 35.768 28.7598 35.6398 28.7598 35.41V35.3561H28.9713V36.886H28.7598V36.832C28.7598 36.6427 28.7331 36.5291 28.6726 36.4626C28.5742 36.3537 28.3618 36.3584 28.0405 36.3656C27.9117 36.3682 27.7653 36.3719 27.5986 36.3687H27.4172V37.5267C27.4172 37.84 27.4172 38.1098 27.5455 38.254C27.6194 38.337 27.7357 38.3775 27.9015 38.3775H27.9495V38.6312H26.2859V38.378H26.334C26.4956 38.378 26.5944 38.3474 26.6553 38.2789C26.756 38.1658 26.7749 37.9277 26.7749 37.5272V35.1195C26.8003 34.691 26.8095 34.4451 26.7121 34.3278C26.6498 34.2531 26.5334 34.2199 26.334 34.2199H26.2859V33.9984H29.2299V34.0524ZM30.1838 26.0635V28.6009C30.1838 30.1251 29.6099 30.8042 28.3235 30.8042C27.6337 30.8042 27.1434 30.6309 26.8257 30.2735C26.5334 29.9451 26.3912 29.4719 26.3912 28.8276V26.0796C26.3986 25.4876 26.3792 25.1406 26.2559 25.0005C26.1733 24.9066 26.0348 24.8895 25.7919 24.8895H25.7439V24.6363H27.6808V24.8895H27.6328C27.4144 24.8895 27.3031 24.9196 27.2371 24.9963C27.1217 25.1297 27.1175 25.4435 27.1346 26.0785V28.3425C27.1346 29.2566 27.2366 29.7443 27.4873 30.026C27.6882 30.2517 27.9994 30.357 28.4671 30.357C28.8383 30.357 29.1311 30.2372 29.3388 30.0011C29.6293 29.6706 29.7659 29.1176 29.7567 28.3109V26.063C29.7646 25.5421 29.741 25.1867 29.5997 25.0254C29.5162 24.9299 29.3883 24.8895 29.1717 24.8895H29.1283L29.1237 24.8417L29.1094 24.6965L29.1034 24.6363H30.8732V24.8895H30.8251C30.2738 24.8895 30.1838 25.0539 30.1838 26.0635ZM30.778 30.8037V30.5505H30.8261C30.9923 30.5505 31.0952 30.5183 31.1594 30.4462C31.2624 30.3305 31.2818 30.0945 31.2818 29.6992V27.2593C31.2818 26.8572 31.2615 26.6165 31.1562 26.4972C31.0911 26.4241 30.9895 26.3919 30.8265 26.3919H30.7785V26.1709H31.8008L31.8151 26.1932L33.8425 29.3231V27.2588C33.8425 26.8375 33.824 26.603 33.7234 26.4899C33.6629 26.422 33.5682 26.3919 33.4159 26.3919H33.3678V26.1709H34.6288V26.3919H34.5808C34.4363 26.3919 34.349 26.4173 34.2978 26.4754C34.21 26.574 34.2105 26.7882 34.211 27.1426L34.2114 27.2593V30.8037H34.0378L34.0235 30.7819L31.6364 27.1327V29.6992C31.6364 30.0945 31.6558 30.3305 31.7587 30.4462C31.8229 30.5183 31.9259 30.5505 32.0921 30.5505H32.1401V30.8037H30.778ZM37.2699 32.5172V32.7165H37.2219C36.6516 32.7165 36.6516 32.8306 36.6516 33.9232V37.1552C36.6516 37.7316 36.6516 38.0792 36.7989 38.2452C36.8806 38.337 37.0113 38.378 37.2223 38.378H37.2703V38.6317H35.2895V38.378H35.3376C35.5486 38.378 35.6788 38.337 35.761 38.2452C35.9083 38.0797 35.9083 37.7316 35.9083 37.1552V33.8791L34.3185 38.5964L34.307 38.6312H34.0965L34.0854 38.5959L32.51 33.8505V37.1552C32.51 37.7342 32.51 38.0839 32.6563 38.2483C32.7362 38.3381 32.8627 38.378 33.0659 38.378H33.1139V38.6317H31.5076V38.378H31.5556C31.7943 38.378 31.9384 38.3614 32.015 38.2758C32.1258 38.1508 32.1258 37.8452 32.1258 37.2362V33.9232C32.1258 33.2742 32.1258 32.9484 32.0108 32.8192C31.9342 32.7325 31.7915 32.7165 31.5556 32.7165H31.5076V32.4633H32.7967L32.8082 32.4981L34.3883 37.1796L35.9401 32.4981L35.9521 32.4633H37.2703L37.2699 32.5172ZM39.4848 34.0524V34.2199H39.4367C39.0438 34.2199 38.9672 34.291 38.9672 35.1029V37.5272C38.9672 37.9381 38.9852 38.1809 39.0794 38.2862C39.1389 38.3531 39.2359 38.3785 39.4367 38.3785H39.4848V38.6322H37.8069V38.378H37.8549C38.0562 38.378 38.1532 38.3531 38.2132 38.2857C38.3069 38.1804 38.3249 37.9376 38.3249 37.5267V35.1024C38.3249 34.6759 38.306 34.4238 38.2086 34.3138C38.1481 34.2459 38.0493 34.2194 37.8553 34.2194H37.8073V33.9979H39.4852L39.4848 34.0524ZM39.7341 30.8037H39.5956L39.5836 30.7694L38.3323 27.085C38.2767 26.8939 38.1927 26.7148 38.0839 26.5553L38.0793 26.548C37.9662 26.3929 37.9011 26.3929 37.7441 26.3929H37.696V26.1709H39.1888L39.1713 26.2394L39.1426 26.3525L39.1325 26.3914H39.0965C38.8998 26.3914 38.8471 26.396 38.8273 26.5097C38.8106 26.603 38.8993 26.8375 38.9579 26.9926C38.9916 27.0814 39.018 27.1514 39.0281 27.1971L39.0267 27.1908L39.7863 29.4164L40.4179 27.4985L40.4308 27.4554C40.4904 27.2552 40.6021 26.8821 40.6021 26.7255C40.6021 26.4666 40.5139 26.4235 40.3265 26.3909L40.2859 26.3836V26.1709H41.4254L41.4314 26.2171L41.4457 26.3302L41.4535 26.3919H41.3981C41.2181 26.3919 41.1063 26.4749 41.0555 26.6461C40.9626 26.9232 40.8764 27.2031 40.797 27.4855L39.7466 30.7684L39.7341 30.8037ZM44.1449 34.0524V34.2199H44.0969C43.9524 34.2199 43.8651 34.2459 43.8139 34.3034C43.7262 34.4025 43.7266 34.6163 43.7275 34.9711V38.6322H43.5544L43.5401 38.6104L41.153 34.9613V37.5277C41.153 37.923 41.1724 38.1591 41.2753 38.2743C41.3395 38.3464 41.442 38.3785 41.6087 38.3785H41.6567V38.6322H40.2951V38.378H40.3431C40.5093 38.378 40.6123 38.3459 40.676 38.2738C40.779 38.1581 40.7984 37.922 40.7984 37.5272V35.0868C40.7984 34.6848 40.7785 34.4446 40.6728 34.3252C40.6081 34.2526 40.5061 34.2199 40.3436 34.2199H40.2955V33.9984H41.3173L41.3317 34.0207L43.3591 37.1506V35.0863C43.3591 34.6656 43.3406 34.4305 43.24 34.3175C43.1795 34.2495 43.0848 34.2194 42.9325 34.2194H42.8844V33.9979H44.1454L44.1449 34.0524ZM48.6038 34.0524V34.2199H48.5553C48.4113 34.2199 48.3235 34.2459 48.2732 34.3034C48.185 34.4025 48.1859 34.6163 48.1864 34.9711V38.6322H48.0128L47.9985 38.6104L45.6114 34.9618V37.5282C45.6114 37.9236 45.6312 38.1596 45.7342 38.2748C45.7984 38.3469 45.9009 38.3791 46.0671 38.3791H46.1151V38.6328H44.7535V38.378H44.802C44.9677 38.378 45.0707 38.3459 45.1349 38.2738C45.2378 38.1586 45.2577 37.922 45.2577 37.5272V35.0868C45.2577 34.6848 45.2369 34.4446 45.1316 34.3252C45.0665 34.2526 44.965 34.2199 44.8024 34.2199H44.754V33.9984H45.7757L45.7901 34.0207L47.8175 37.1506V35.0863C47.8175 34.6656 47.7995 34.4305 47.6984 34.3175C47.6379 34.2495 47.5432 34.2194 47.3909 34.2194H47.3428V33.9979H48.6043L48.6038 34.0524ZM49.1833 30.6045V30.8037H48.2155L48.2021 30.7777L47.0792 28.687H46.7809V29.7158C46.7809 30.0909 46.8017 30.3305 46.9056 30.4473C46.9688 30.5189 47.0713 30.551 47.2366 30.551H47.2847V30.8042H45.6206V30.551H45.6691C45.8385 30.551 45.9424 30.5194 46.0057 30.4483C46.1059 30.3363 46.1248 30.1044 46.1248 29.7158V27.1727C46.1267 26.8889 46.1285 26.6435 46.0103 26.5102C45.9401 26.4313 45.8288 26.3924 45.6696 26.3924H45.6211V26.1709H47.1835C47.7335 26.1709 48.1185 26.3016 48.3586 26.5714C48.5433 26.7789 48.6375 27.0699 48.6375 27.4362C48.6375 28.1345 48.3517 28.5568 47.8161 28.6689L48.5004 29.9451C48.6952 30.3202 48.8296 30.5495 49.1353 30.5495H49.1837L49.1833 30.6045ZM52.4139 37.4063L52.2417 38.5861L52.2343 38.6312H49.2267V38.378H49.2747C49.4363 38.378 49.5342 38.3474 49.5956 38.2789C49.6967 38.1664 49.7156 37.9277 49.7156 37.5272V35.1195C49.741 34.691 49.7498 34.4451 49.6524 34.3278C49.59 34.2531 49.4737 34.2199 49.2747 34.2199H49.2267V33.9984H52.1706V35.1729H52.0035L52.0025 35.1211C51.9753 34.3491 51.75 34.3491 50.9143 34.3491C50.6391 34.3491 50.4876 34.3491 50.4253 34.3906C50.3768 34.4222 50.3731 34.4907 50.3685 34.6853C50.3676 34.7636 50.3648 34.8611 50.3579 34.9779V35.9382H50.5403L50.8949 35.9418C51.2763 35.9485 51.5062 35.9527 51.6092 35.8391C51.6733 35.768 51.701 35.6398 51.701 35.41V35.3561H51.9125V36.886H51.701V36.832C51.701 36.6427 51.6738 36.5291 51.6138 36.4626C51.5154 36.3537 51.3026 36.3584 50.9817 36.3656C50.8529 36.3682 50.7065 36.3719 50.5398 36.3687H50.3584V37.7529C50.3584 37.9801 50.3611 38.1114 50.4198 38.1767C50.4849 38.2504 50.6488 38.2639 50.9295 38.2639C51.7283 38.2639 51.9998 38.0818 52.2514 37.3773L52.263 37.3436H52.4232L52.4139 37.4063ZM52.8835 30.8037V30.5505H52.932C53.1333 30.5505 53.2298 30.5256 53.2898 30.4582C53.3836 30.3523 53.4016 30.1101 53.4016 29.6992V27.2749C53.4016 26.8484 53.3826 26.5963 53.2852 26.4863C53.2238 26.4183 53.1245 26.3919 52.9315 26.3919H52.8831V26.1709H54.5614V26.3919H54.5134C54.1209 26.3919 54.0434 26.463 54.0434 27.2749V29.6992C54.0434 30.1101 54.0614 30.3523 54.1551 30.4582C54.2147 30.5256 54.3121 30.5505 54.5129 30.5505H54.561V30.8037H52.8835ZM55.5638 37.618C55.4955 37.9993 55.3186 38.2929 55.0518 38.4673C54.7687 38.6519 54.4178 38.6805 54.0632 38.5477C53.9252 38.4958 53.8531 38.4532 53.801 38.4226C53.7368 38.3853 53.7026 38.3651 53.5997 38.3568C53.5239 38.349 53.5041 38.3941 53.4718 38.4885C53.4602 38.5246 53.4453 38.5592 53.4274 38.5918C53.4222 38.6021 53.4151 38.6111 53.4066 38.6182C53.3981 38.6252 53.3884 38.6302 53.378 38.6328C53.3687 38.6345 53.3591 38.634 53.35 38.6314C53.3408 38.6287 53.3323 38.6238 53.3249 38.6172L53.2764 38.6447L53.2681 38.5684L53.1102 37.0655L53.1038 37.0053H53.3046L53.3171 37.039C53.3443 37.1163 53.3702 37.1931 53.3956 37.2673C53.5553 37.743 53.6814 38.1192 54.1052 38.2514C54.2858 38.3132 54.5093 38.282 54.6879 38.17C54.7626 38.1257 54.8284 38.0647 54.8813 37.9907C54.9342 37.9167 54.973 37.8314 54.9954 37.7399C55.1395 37.1283 54.6861 36.7947 54.2064 36.4414C53.6906 36.0611 53.1061 35.6305 53.2686 34.7854C53.3337 34.4539 53.4741 34.2127 53.6878 34.0669C54.0378 33.8282 54.5065 33.8993 54.8385 34.0015L54.8468 34.0036C54.9442 34.0311 54.9442 34.0311 54.9525 34.0347C54.9543 34.0357 54.9599 34.0378 54.9977 34.0503C55.0393 34.0596 55.206 33.9792 55.2411 33.8734L55.2466 33.8573L55.26 33.8474C55.2736 33.8366 55.2895 33.8299 55.3061 33.828C55.3227 33.826 55.3394 33.829 55.3547 33.8365L55.4207 33.7623V35.3037H55.2434L55.2378 35.2559C55.1667 34.5494 55.0259 34.4591 54.7447 34.2785C54.5933 34.181 54.3569 34.1795 54.157 34.2744C53.9875 34.3543 53.8739 34.4876 53.837 34.649C53.71 35.2015 54.4206 35.7327 54.5637 35.8339C55.2055 36.2624 55.725 36.6935 55.5638 37.618ZM55.9046 30.8037V30.5505H55.9526C56.1968 30.5505 56.3331 30.536 56.4028 30.4582C56.49 30.3606 56.4947 30.1303 56.4947 29.6992V27.114C56.4947 27.0736 56.4956 27.0321 56.4974 26.9921C56.502 26.838 56.5071 26.6788 56.4351 26.5947C56.3926 26.5455 56.3243 26.5211 56.2259 26.5211C55.4442 26.5211 55.4198 26.7011 55.362 27.1348C55.3547 27.1877 55.3477 27.2422 55.3385 27.3008L55.3311 27.3454H55.1275V26.1709H58.4884V27.3459H58.2871L58.2788 27.3044C58.2679 27.2554 58.258 27.2061 58.2492 27.1566C58.1763 26.7742 58.1282 26.5211 57.4486 26.5211C57.3456 26.5211 57.2736 26.547 57.227 26.5999C57.1457 26.6928 57.1485 26.8655 57.1503 27.0326L57.1512 27.1135V29.6976C57.1655 30.4431 57.1997 30.55 57.6933 30.55H57.7413V30.8032L55.9046 30.8037ZM57.8083 38.6255V38.6317H57.7118V38.627C57.2814 38.6141 56.8982 38.4361 56.6018 38.1031C56.2195 37.6735 56.0002 37.0224 56.0002 36.3158C56.0002 35.6331 56.2292 34.9685 56.6124 34.5379C56.9074 34.2036 57.3071 34.0122 57.7261 34.0046V33.9994H57.8226V34.0046C58.2455 34.0176 58.6241 34.1945 58.9201 34.5265C59.3042 34.9587 59.5342 35.6393 59.5342 36.348C59.5342 37.4655 58.939 38.5928 57.8083 38.6255ZM58.8859 26.3924H58.8444L58.8388 26.3462L58.8245 26.2326L58.8162 26.1714H60.5306V26.3924H60.4826C60.1686 26.3924 60.1127 26.4739 60.1127 26.6456C60.1127 26.6902 60.1778 26.8546 60.2245 26.975C60.266 27.0814 60.3039 27.1804 60.3237 27.2515L60.954 28.3825L61.5321 27.2199L61.5584 27.1628C61.617 27.0357 61.7144 26.8225 61.7144 26.6949C61.7144 26.5729 61.6983 26.4998 61.6623 26.4593C61.6207 26.4121 61.5413 26.3934 61.3889 26.3934H61.3404V26.1709H62.7099L62.7164 26.2171L62.7307 26.3302L62.739 26.394L62.6813 26.3919C62.3078 26.3784 62.1429 26.7436 61.9832 27.0969L61.9347 27.2033L61.1493 28.8084V29.7158C61.1493 30.0888 61.1691 30.3274 61.273 30.4436C61.3391 30.5178 61.4453 30.5505 61.6193 30.5505H61.6674V30.8037H59.9742V30.5505H60.0222C60.2268 30.5505 60.3307 30.5241 60.3911 30.4556C60.477 30.3596 60.4923 30.1583 60.4923 29.7962V28.8105L59.6228 27.2723C59.2253 26.5065 58.9907 26.3924 58.8859 26.3924ZM61.9061 34.8606L61.907 34.9416V37.5257C61.9213 38.2706 61.9555 38.378 62.449 38.378H62.4971V38.6317H60.6603V38.378H60.7083C60.9526 38.378 61.0888 38.3635 61.1585 38.2857C61.2458 38.1881 61.2495 37.9583 61.2495 37.5267V34.9416C61.2495 34.9011 61.2513 34.8596 61.2523 34.8196C61.2578 34.6656 61.2629 34.5058 61.1908 34.4222C61.1484 34.373 61.08 34.3491 60.9817 34.3491C60.2 34.3491 60.1755 34.5286 60.1178 34.9623C60.1104 35.0152 60.1035 35.0697 60.0943 35.1283L60.0869 35.1729H59.8833V33.9984H63.2441V35.1729H63.0428L63.0336 35.1314C63.0234 35.0823 63.0139 35.033 63.005 34.9836C62.932 34.6012 62.884 34.3486 62.2043 34.3486C62.1014 34.3486 62.0293 34.374 61.9827 34.4274C61.9014 34.5203 61.9042 34.6936 61.9061 34.8606ZM66.9121 38.432V38.6317H65.4927V38.378H65.5412C65.6386 38.378 65.7028 38.378 65.7296 38.3479C65.755 38.3194 65.7656 38.2457 65.7656 38.1088C65.7656 38.0393 65.7125 37.839 65.6834 37.7576C65.6816 37.755 65.52 37.1962 65.477 37.0478H64.2488L64.1039 37.4198C64.0208 37.6839 63.9335 37.9609 63.9201 38.0533C63.9012 38.1798 63.8956 38.2727 63.9293 38.3178C63.9607 38.3594 64.0383 38.3785 64.1754 38.3785H64.2234V38.6322H63.0045V38.378H63.0525C63.3656 38.378 63.505 37.992 63.6818 37.5039L63.728 37.3768C63.7271 37.3778 64.9497 33.8869 64.9497 33.8869L64.9613 33.8526H65.0425L65.0633 33.7125L65.1086 33.8526H65.1303L65.1284 33.9081V33.9123L66.262 37.3783L66.2573 37.3679C66.2952 37.4343 66.3294 37.5407 66.3682 37.6637C66.4637 37.9651 66.5935 38.3775 66.864 38.3775H66.9121V38.432Z" fill="black"/>
<path fill-rule="evenodd" clip-rule="evenodd" d="M64.9072 35.2414L64.3896 36.6816H65.3717L64.9072 35.2414ZM46.5856 22.3189C46.5973 22.9544 46.8302 23.5594 47.2343 24.0042C47.6384 24.449 48.1816 24.6982 48.7474 24.6982C49.3131 24.6982 49.8563 24.449 50.2604 24.0042C50.6646 23.5594 50.8975 22.9544 50.9092 22.3189C50.8975 21.6834 50.6646 21.0783 50.2604 20.6335C49.8563 20.1887 49.3131 19.9396 48.7474 19.9396C48.1816 19.9396 47.6384 20.1887 47.2343 20.6335C46.8302 21.0783 46.5973 21.6834 46.5856 22.3189Z" fill="black"/>
</g>
<defs>
<clipPath id="clip0_6_48">
<rect width="89" height="100" fill="white"/>
</clipPath>
</defs>
</svg>
