<svg width="44" height="102" viewBox="0 0 44 102" fill="none" xmlns="http://www.w3.org/2000/svg">
<g clip-path="url(#clip0_7_158)">
<path d="M33.9168 82.2638V86.7331H34.8108V83.7574H38.0645V86.7331H38.9578V82.2715L33.9168 82.2638ZM34.7112 80.8181H38.1487C38.6261 80.6659 38.9812 79.9902 39.0813 79.3367H33.7787C33.8778 79.9906 34.2381 80.6659 34.7112 80.8181Z" fill="#EFC9C9"/>
<path d="M0 0.00860596H44V101.991H0V0.00860596Z" fill="#E31937"/>
<path d="M31.2094 86.7359C31.6601 86.4296 31.9026 85.8997 31.9956 85.2794H27.9859L27.9886 79.3406L27.0898 79.3447V86.7359H31.2094ZM20.4058 80.7981H23.5804C24.059 80.5752 24.4609 79.9906 24.5589 79.3426H19.5157V83.7105H23.6433V85.2433L20.4056 85.2476C19.8983 85.4744 19.468 86.0206 19.2534 86.7421L19.5157 86.7343H24.5301V82.2585H20.4056L20.4058 80.7981Z" fill="#EFC9C9"/>
<path d="M12.5686 80.8121H16.005C16.4831 80.6594 16.8384 79.9843 16.938 79.3301H11.6356C11.7346 79.9843 12.0951 80.6594 12.5686 80.8121ZM12.5686 83.7333H16.005C16.4831 83.5822 16.8384 82.9065 16.938 82.2519H11.6356C11.7346 82.9069 12.0951 83.5822 12.5686 83.7333ZM12.5686 86.7351H16.005C16.4831 86.5827 16.8384 85.9072 16.938 85.2535H11.6356C11.7346 85.9078 12.0951 86.5827 12.5686 86.7351Z" fill="#EFC9C9"/>
<path d="M3.62878 79.3483C3.73209 79.9943 4.08105 80.6543 4.55952 80.8199H6.00601L6.07979 80.8666V86.7186H6.98305V80.8666L7.06524 80.8199H8.51299C8.99694 80.62 9.33814 79.9943 9.43966 79.3483V79.334H3.62878V79.3483Z" fill="#EFC9C9"/>
<path d="M22.0275 64.7267L26.5409 24.0317C30.8427 24.0317 32.1996 24.788 32.3956 27.875C32.3956 27.875 35.2816 26.1499 36.737 22.6462C31.0572 18.4265 25.3502 18.2362 25.3502 18.2362L22.0201 24.7391L22.0276 24.7383L18.6974 18.2352C18.6974 18.2352 12.9904 18.4257 7.31128 22.6454C8.76552 26.1491 11.6525 27.8742 11.6525 27.8742C11.8496 24.787 13.2048 24.0307 17.4779 24.0258L22.0275 64.7267Z" fill="#EFC9C9"/>
<path d="M22.0257 16.3579C26.6171 16.3016 31.8723 17.4967 37.2523 21.256C37.9713 19.181 38.1561 18.264 38.1561 18.264C32.275 14.5337 26.7676 13.2571 22.0251 13.225C17.2827 13.2571 11.7755 14.5339 5.89532 18.264C5.89532 18.264 6.15765 19.3936 6.79858 21.256C12.1774 17.4967 17.4338 16.3016 22.0252 16.3579H22.0257Z" fill="#EFC9C9"/>
</g>
<rect x="0.5" y="0.5" width="43" height="101" stroke="black"/>
<defs>
<clipPath id="clip0_7_158">
<rect width="44" height="102" fill="white"/>
</clipPath>
</defs>
</svg>
